<svg width="20" height="25" viewBox="0 0 20 25" fill="none" xmlns="http://www.w3.org/2000/svg">
<path d="M14.9926 5.83789C15.7583 5.89502 17.9689 6.12344 19.3862 8.23535C19.2693 8.32295 16.7641 9.77918 16.7924 12.8311C16.8209 16.4738 19.9495 17.6903 19.9955 17.7256C19.9672 17.8112 19.5 19.4527 18.352 21.1367C17.3456 22.6209 16.3106 24.0768 14.6664 24.1055C13.079 24.134 12.5543 23.1495 10.726 23.1494C8.91178 23.1494 8.31619 24.0766 6.81389 24.1338C5.22649 24.1909 4.0214 22.5642 3.01506 21.0801C0.959764 18.083 -0.614039 12.6303 1.51214 8.94824C2.54691 7.10735 4.43255 5.95139 6.4594 5.92285C8.01854 5.89438 9.45017 6.96484 10.3998 6.96484C11.3354 6.96479 13.0224 5.72372 14.9926 5.83789ZM15.0073 0C15.149 1.4271 14.5954 2.82538 13.7592 3.86719C12.9088 4.88037 11.5485 5.68038 10.1879 5.56641C10.0178 4.19632 10.6837 2.73994 11.4633 1.84082C12.3138 0.79908 13.8025 0.0570835 15.0073 0Z" fill="black"/>
</svg>
