<svg width="25" height="25" viewBox="0 0 25 25" fill="none" xmlns="http://www.w3.org/2000/svg">
<mask id="mask0_2121_2197" style="mask-type:luminance" maskUnits="userSpaceOnUse" x="2" y="4" width="21" height="17">
<path d="M14.5002 4.61133H10.5002C6.72925 4.61133 4.84325 4.61133 3.67225 5.78333C2.82825 6.62633 2.59225 7.84033 2.52625 9.86133H22.4742C22.4082 7.84033 22.1722 6.62633 21.3282 5.78333C20.1572 4.61133 18.2712 4.61133 14.5002 4.61133ZM10.5002 20.6113H14.5002C18.2712 20.6113 20.1572 20.6113 21.3282 19.4393C22.4992 18.2673 22.5002 16.3823 22.5002 12.6113C22.5002 12.17 22.4996 11.7533 22.4982 11.3613H2.50225C2.50025 11.7533 2.49958 12.17 2.50025 12.6113C2.50025 16.3823 2.50025 18.2683 3.67225 19.4393C4.84425 20.6103 6.72925 20.6113 10.5002 20.6113Z" fill="white"/>
<path fill-rule="evenodd" clip-rule="evenodd" d="M5.75 16.6113C5.75 16.4124 5.82902 16.2217 5.96967 16.081C6.11032 15.9403 6.30109 15.8613 6.5 15.8613H10.5C10.6989 15.8613 10.8897 15.9403 11.0303 16.081C11.171 16.2217 11.25 16.4124 11.25 16.6113C11.25 16.8102 11.171 17.001 11.0303 17.1417C10.8897 17.2823 10.6989 17.3613 10.5 17.3613H6.5C6.30109 17.3613 6.11032 17.2823 5.96967 17.1417C5.82902 17.001 5.75 16.8102 5.75 16.6113ZM12.25 16.6113C12.25 16.4124 12.329 16.2217 12.4697 16.081C12.6103 15.9403 12.8011 15.8613 13 15.8613H14.5C14.6989 15.8613 14.8897 15.9403 15.0303 16.081C15.171 16.2217 15.25 16.4124 15.25 16.6113C15.25 16.8102 15.171 17.001 15.0303 17.1417C14.8897 17.2823 14.6989 17.3613 14.5 17.3613H13C12.8011 17.3613 12.6103 17.2823 12.4697 17.1417C12.329 17.001 12.25 16.8102 12.25 16.6113Z" fill="black"/>
</mask>
<g mask="url(#mask0_2121_2197)">
<path d="M0.5 0.611328H24.5V24.6113H0.5V0.611328Z" fill="black"/>
</g>
</svg>
