<svg width="21" height="20" viewBox="0 0 21 20" fill="none" xmlns="http://www.w3.org/2000/svg">
<path d="M8.04967 1.60746C6.47468 1.59912 4.94134 3.11579 5.64134 4.99912H2.99967C2.55765 4.99912 2.13372 5.17472 1.82116 5.48728C1.5086 5.79984 1.33301 6.22376 1.33301 6.66579V8.33246C1.33301 8.55347 1.42081 8.76543 1.57709 8.92171C1.73337 9.07799 1.94533 9.16579 2.16634 9.16579H9.66634V6.66579H11.333V9.16579H18.833C19.054 9.16579 19.266 9.07799 19.4223 8.92171C19.5785 8.76543 19.6663 8.55347 19.6663 8.33246V6.66579C19.6663 6.22376 19.4907 5.79984 19.1782 5.48728C18.8656 5.17472 18.4417 4.99912 17.9997 4.99912H15.358C16.333 2.27412 12.6663 0.349123 10.9747 2.69912L10.4997 3.33246L10.0247 2.68246C9.49967 1.94079 8.77468 1.61579 8.04967 1.60746ZM7.99967 3.33246C8.74134 3.33246 9.11634 4.23246 8.59134 4.75746C8.06634 5.28246 7.16634 4.90746 7.16634 4.16579C7.16634 3.94478 7.25414 3.73281 7.41042 3.57653C7.5667 3.42025 7.77866 3.33246 7.99967 3.33246ZM12.9997 3.33246C13.7413 3.33246 14.1163 4.23246 13.5913 4.75746C13.0663 5.28246 12.1663 4.90746 12.1663 4.16579C12.1663 3.94478 12.2541 3.73281 12.4104 3.57653C12.5667 3.42025 12.7787 3.33246 12.9997 3.33246ZM2.16634 9.99912V16.6658C2.16634 17.1078 2.34194 17.5317 2.6545 17.8443C2.96706 18.1569 3.39098 18.3325 3.83301 18.3325H17.1663C17.6084 18.3325 18.0323 18.1569 18.3449 17.8443C18.6574 17.5317 18.833 17.1078 18.833 16.6658V9.99912H11.333V16.6658H9.66634V9.99912H2.16634Z" fill="black"/>
</svg>
