<svg width="20" height="20" viewBox="0 0 20 20" fill="none" xmlns="http://www.w3.org/2000/svg">
<path d="M19.7845 10.2058C19.7845 9.52645 19.7299 8.84711 19.6206 8.18164H10.3418V12.022H15.6576C15.439 13.2559 14.7284 14.365 13.6898 15.0582V17.5537H16.8602C18.7187 15.8207 19.7845 13.2559 19.7845 10.2058Z" fill="#4285F4"/>
<path d="M10.3435 19.9654C12.9945 19.9654 15.2356 19.0781 16.8618 17.553L13.6915 15.0575C12.8032 15.6675 11.669 16.0141 10.3435 16.0141C7.77437 16.0141 5.60158 14.2534 4.82266 11.8965H1.55664V14.4752C3.22381 17.8442 6.62648 19.9654 10.3435 19.9654Z" fill="#34A853"/>
<path d="M4.82235 11.8972C4.41233 10.6633 4.41233 9.31847 4.82235 8.07071V5.50586H1.55582C0.148061 8.32026 0.148061 11.6476 1.55582 14.462L4.82235 11.8972Z" fill="#FBBC04"/>
<path d="M10.3435 3.95186C11.751 3.92413 13.1039 4.46483 14.1151 5.44917L16.9302 2.59318C15.14 0.901766 12.7896 -0.0271247 10.3435 0.000603377C6.62648 0.000603377 3.22381 2.13567 1.55664 5.50463L4.82266 8.08334C5.60158 5.71259 7.77437 3.95186 10.3435 3.95186Z" fill="#EA4335"/>
</svg>
