<svg width="80" height="80" viewBox="0 0 80 80" fill="none" xmlns="http://www.w3.org/2000/svg">
<path d="M53.2656 47.2188H47.8906C47.5196 47.2188 47.2188 47.5196 47.2188 47.8906V53.2656C47.2188 53.6367 47.5196 53.9375 47.8906 53.9375H53.2656C53.6367 53.9375 53.9375 53.6367 53.9375 53.2656V47.8906C53.9375 47.5196 53.6367 47.2188 53.2656 47.2188Z" fill="url(#paint0_linear_59_68702)"/>
<path d="M46.5469 41.8438H42.5156C42.1446 41.8438 41.8438 42.1446 41.8438 42.5156V46.5469C41.8438 46.9179 42.1446 47.2188 42.5156 47.2188H46.5469C46.9179 47.2188 47.2188 46.9179 47.2188 46.5469V42.5156C47.2188 42.1446 46.9179 41.8438 46.5469 41.8438Z" fill="url(#paint1_linear_59_68702)"/>
<path d="M58.6406 53.9375H54.6094C54.2383 53.9375 53.9375 54.2383 53.9375 54.6094V58.6406C53.9375 59.0117 54.2383 59.3125 54.6094 59.3125H58.6406C59.0117 59.3125 59.3125 59.0117 59.3125 58.6406V54.6094C59.3125 54.2383 59.0117 53.9375 58.6406 53.9375Z" fill="url(#paint2_linear_59_68702)"/>
<path d="M58.6406 41.8438H55.9531C55.5821 41.8438 55.2812 42.1446 55.2812 42.5156V45.2031C55.2812 45.5742 55.5821 45.875 55.9531 45.875H58.6406C59.0117 45.875 59.3125 45.5742 59.3125 45.2031V42.5156C59.3125 42.1446 59.0117 41.8438 58.6406 41.8438Z" fill="url(#paint3_linear_59_68702)"/>
<path d="M45.2031 55.2812H42.5156C42.1446 55.2812 41.8438 55.5821 41.8438 55.9531V58.6406C41.8438 59.0117 42.1446 59.3125 42.5156 59.3125H45.2031C45.5742 59.3125 45.875 59.0117 45.875 58.6406V55.9531C45.875 55.5821 45.5742 55.2812 45.2031 55.2812Z" fill="url(#paint4_linear_59_68702)"/>
<path d="M56.625 21.6875H44.5312C43.8185 21.6875 43.1349 21.9706 42.6309 22.4747C42.1269 22.9787 41.8438 23.6622 41.8438 24.375V36.4688C41.8438 37.1815 42.1269 37.8651 42.6309 38.3691C43.1349 38.8731 43.8185 39.1562 44.5312 39.1562H56.625C57.3378 39.1562 58.0213 38.8731 58.5253 38.3691C59.0294 37.8651 59.3125 37.1815 59.3125 36.4688V24.375C59.3125 23.6622 59.0294 22.9787 58.5253 22.4747C58.0213 21.9706 57.3378 21.6875 56.625 21.6875ZM53.9375 33.1094C53.9375 33.2876 53.8667 33.4585 53.7407 33.5845C53.6147 33.7105 53.4438 33.7812 53.2656 33.7812H47.8906C47.7124 33.7812 47.5415 33.7105 47.4155 33.5845C47.2895 33.4585 47.2188 33.2876 47.2188 33.1094V27.7344C47.2188 27.5562 47.2895 27.3853 47.4155 27.2593C47.5415 27.1333 47.7124 27.0625 47.8906 27.0625H53.2656C53.4438 27.0625 53.6147 27.1333 53.7407 27.2593C53.8667 27.3853 53.9375 27.5562 53.9375 27.7344V33.1094ZM36.4688 21.6875H24.375C23.6622 21.6875 22.9787 21.9706 22.4747 22.4747C21.9706 22.9787 21.6875 23.6622 21.6875 24.375V36.4688C21.6875 37.1815 21.9706 37.8651 22.4747 38.3691C22.9787 38.8731 23.6622 39.1562 24.375 39.1562H36.4688C37.1815 39.1562 37.8651 38.8731 38.3691 38.3691C38.8731 37.8651 39.1562 37.1815 39.1562 36.4688V24.375C39.1562 23.6622 38.8731 22.9787 38.3691 22.4747C37.8651 21.9706 37.1815 21.6875 36.4688 21.6875ZM33.7812 33.1094C33.7812 33.2876 33.7105 33.4585 33.5845 33.5845C33.4585 33.7105 33.2876 33.7812 33.1094 33.7812H27.7344C27.5562 33.7812 27.3853 33.7105 27.2593 33.5845C27.1333 33.4585 27.0625 33.2876 27.0625 33.1094V27.7344C27.0625 27.5562 27.1333 27.3853 27.2593 27.2593C27.3853 27.1333 27.5562 27.0625 27.7344 27.0625H33.1094C33.2876 27.0625 33.4585 27.1333 33.5845 27.2593C33.7105 27.3853 33.7812 27.5562 33.7812 27.7344V33.1094ZM36.4688 41.8438H24.375C23.6622 41.8438 22.9787 42.1269 22.4747 42.6309C21.9706 43.1349 21.6875 43.8185 21.6875 44.5312V56.625C21.6875 57.3378 21.9706 58.0213 22.4747 58.5253C22.9787 59.0294 23.6622 59.3125 24.375 59.3125H36.4688C37.1815 59.3125 37.8651 59.0294 38.3691 58.5253C38.8731 58.0213 39.1562 57.3378 39.1562 56.625V44.5312C39.1562 43.8185 38.8731 43.1349 38.3691 42.6309C37.8651 42.1269 37.1815 41.8438 36.4688 41.8438ZM33.7812 53.2656C33.7812 53.4438 33.7105 53.6147 33.5845 53.7407C33.4585 53.8667 33.2876 53.9375 33.1094 53.9375H27.7344C27.5562 53.9375 27.3853 53.8667 27.2593 53.7407C27.1333 53.6147 27.0625 53.4438 27.0625 53.2656V47.8906C27.0625 47.7124 27.1333 47.5415 27.2593 47.4155C27.3853 47.2895 27.5562 47.2188 27.7344 47.2188H33.1094C33.2876 47.2188 33.4585 47.2895 33.5845 47.4155C33.7105 47.5415 33.7812 47.7124 33.7812 47.8906V53.2656Z" fill="url(#paint5_linear_59_68702)"/>
<circle cx="40" cy="40" r="37" stroke="url(#paint6_linear_59_68702)" stroke-width="6"/>
<defs>
<linearGradient id="paint0_linear_59_68702" x1="50.5781" y1="47.2188" x2="50.5781" y2="53.9375" gradientUnits="userSpaceOnUse">
<stop stop-color="#6A1B9A"/>
<stop offset="1" stop-color="#D32F2F"/>
</linearGradient>
<linearGradient id="paint1_linear_59_68702" x1="44.5312" y1="41.8438" x2="44.5312" y2="47.2188" gradientUnits="userSpaceOnUse">
<stop stop-color="#6A1B9A"/>
<stop offset="1" stop-color="#D32F2F"/>
</linearGradient>
<linearGradient id="paint2_linear_59_68702" x1="56.625" y1="53.9375" x2="56.625" y2="59.3125" gradientUnits="userSpaceOnUse">
<stop stop-color="#6A1B9A"/>
<stop offset="1" stop-color="#D32F2F"/>
</linearGradient>
<linearGradient id="paint3_linear_59_68702" x1="57.2969" y1="41.8438" x2="57.2969" y2="45.875" gradientUnits="userSpaceOnUse">
<stop stop-color="#6A1B9A"/>
<stop offset="1" stop-color="#D32F2F"/>
</linearGradient>
<linearGradient id="paint4_linear_59_68702" x1="43.8594" y1="55.2812" x2="43.8594" y2="59.3125" gradientUnits="userSpaceOnUse">
<stop stop-color="#6A1B9A"/>
<stop offset="1" stop-color="#D32F2F"/>
</linearGradient>
<linearGradient id="paint5_linear_59_68702" x1="40.5" y1="21.6875" x2="40.5" y2="59.3125" gradientUnits="userSpaceOnUse">
<stop stop-color="#6A1B9A"/>
<stop offset="1" stop-color="#D32F2F"/>
</linearGradient>
<linearGradient id="paint6_linear_59_68702" x1="40" y1="0" x2="40" y2="80" gradientUnits="userSpaceOnUse">
<stop stop-color="#6A1B9A"/>
<stop offset="1" stop-color="#D32F2F"/>
</linearGradient>
</defs>
</svg>
