<svg width="24" height="24" viewBox="0 0 24 24" fill="none" xmlns="http://www.w3.org/2000/svg">
<g clip-path="url(#clip0_2390_18277)">
<path fill-rule="evenodd" clip-rule="evenodd" d="M7.12487 3.55457C6.01586 4.19477 5.0438 5.04713 4.26419 6.06299C3.4846 7.07885 2.91272 8.23832 2.58121 9.4752C1.91171 11.9732 2.26195 14.6348 3.55487 16.8746C4.84779 19.1144 6.97751 20.7488 9.4755 21.4182C11.9735 22.0877 14.6351 21.7376 16.8749 20.4446C17.1323 20.3075 17.4329 20.2757 17.7132 20.3559C17.9936 20.4362 18.2318 20.6222 18.3777 20.8748C18.5237 21.1272 18.5658 21.4265 18.4953 21.7095C18.4248 21.9924 18.2472 22.2371 17.9999 22.3916C15.7311 23.7008 13.0963 24.2318 10.4975 23.9034C7.89878 23.5749 5.47886 22.4052 3.60712 20.5728C1.73539 18.7404 0.514637 16.3458 0.131219 13.7546C-0.252199 11.1633 0.222769 8.51786 1.48363 6.22185C2.74448 3.92586 4.72197 2.10548 7.11426 1.03857C9.50655 -0.0283429 12.1822 -0.283186 14.7329 0.31294C17.2836 0.909065 19.5692 2.32341 21.2408 4.3401C22.9124 6.35681 23.8782 8.86508 23.9909 11.4821C23.9969 11.5293 23.9999 11.5769 23.9999 11.6246V11.7806C24.0009 11.8756 24.0009 11.9706 23.9999 12.0656V13.8746C24.0005 14.7681 23.7108 15.6375 23.1746 16.3523C22.6385 17.067 21.8847 17.5884 21.0267 17.8379C20.1687 18.0875 19.253 18.0516 18.4172 17.7359C17.5814 17.4201 16.8705 16.8416 16.3919 16.0871C15.4398 17.1099 14.1606 17.7684 12.7749 17.949C11.3893 18.1295 9.98405 17.8206 8.80172 17.0759C7.6194 16.331 6.73414 15.1968 6.29866 13.869C5.86319 12.5413 5.90483 11.1031 6.41639 9.80273C6.92795 8.50235 7.87734 7.42131 9.10077 6.74612C10.3242 6.07094 11.7449 5.84394 13.1179 6.10433C14.4908 6.3647 15.7298 7.09611 16.6211 8.17235C17.5122 9.2486 18 10.6022 17.9999 11.9996V13.8746C17.9999 14.3718 18.1974 14.8488 18.549 15.2004C18.9006 15.552 19.3776 15.7496 19.8749 15.7496C20.3721 15.7496 20.8491 15.552 21.2007 15.2004C21.5523 14.8488 21.7499 14.3718 21.7499 13.8746V11.8001C21.7154 10.1056 21.2397 8.44934 20.3699 6.99473C19.5 5.54012 18.2661 4.33737 16.7897 3.50511C15.3132 2.67287 13.6453 2.23985 11.9505 2.24879C10.2557 2.25771 8.59245 2.7083 7.12487 3.55607V3.55457ZM15.7499 11.9996C15.7499 11.005 15.3548 10.0512 14.6515 9.34791C13.9483 8.64465 12.9944 8.24957 11.9999 8.24957C11.0053 8.24957 10.0515 8.64465 9.34822 9.34791C8.64495 10.0512 8.24987 11.005 8.24987 11.9996C8.24987 12.9941 8.64495 13.948 9.34822 14.6512C10.0515 15.3545 11.0053 15.7496 11.9999 15.7496C12.9944 15.7496 13.9483 15.3545 14.6515 14.6512C15.3548 13.948 15.7499 12.9941 15.7499 11.9996Z" fill="#3D3D3D"/>
</g>
<defs>
<clipPath id="clip0_2390_18277">
<rect width="24" height="24" fill="white"/>
</clipPath>
</defs>
</svg>
