<svg width="24" height="24" viewBox="0 0 24 24" fill="none" xmlns="http://www.w3.org/2000/svg">
<path fill-rule="evenodd" clip-rule="evenodd" d="M2.38721 4.06795L3.57094 10.8743H10.8747C11.496 10.8743 11.9997 11.378 11.9997 11.9993C11.9997 12.6206 11.496 13.1243 10.8747 13.1243H3.57094L2.38721 19.9307L20.8938 11.9993L2.38721 4.06795ZM1.48282 11.9993L0.095207 4.02058C-0.0169699 3.37556 0.191743 2.7163 0.654686 2.25335C1.23636 1.67168 2.11358 1.50274 2.86969 1.82678L22.9732 10.4426C23.5959 10.7095 23.9997 11.3218 23.9997 11.9993C23.9997 12.6768 23.5959 13.2892 22.9732 13.5561L2.86969 22.1718C2.11358 22.496 1.23636 22.3269 0.654686 21.7454C0.191743 21.2823 -0.0169702 20.6231 0.095207 19.9781L1.48282 11.9993Z" fill="black"/>
</svg>
