<svg width="18" height="18" viewBox="0 0 18 18" fill="none" xmlns="http://www.w3.org/2000/svg">
<path d="M17.9796 0.800515H16.9937H13.2012H11.7474L10.6791 1.74745L5.40337 6.42357H0.98588V1.74745H4.31405C4.50696 2.23199 4.99452 2.57723 5.56632 2.57723C6.30657 2.57723 6.90793 1.99962 6.90793 1.28862C6.90793 0.57761 6.30657 0 5.56632 0C5.00596 0 4.52579 0.331233 4.32521 0.800515H0.98588H0V1.74745V6.42357V7.37052H0.98588H4.335H5.78874L6.8571 6.42357L12.1328 1.74745H16.9317H16.9937V2.98097V6.42357H13.1097H11.656L10.5876 7.37052L6.50789 10.9866L5.52201 11.8604V13.1489V17.0531V18H6.50789H11.3828H12.3687V17.0531V13.554C12.8496 13.358 13.1875 12.9001 13.1875 12.3672C13.1875 11.6562 12.5861 11.0786 11.8459 11.0786C11.1056 11.0786 10.5043 11.6562 10.5043 12.3672C10.5043 12.9217 10.8707 13.3936 11.3828 13.5751V17.0531H6.50789V12.2751L12.0413 7.37052H16.9937H17.9796V6.42357V2.10713V1.74745V0.818628L18 0.800515H17.9796ZM5.56635 0.527158C6.0034 0.527158 6.35912 0.868834 6.35912 1.28862C6.35912 1.7084 6.0034 2.05007 5.56635 2.05007C5.1293 2.05007 4.77358 1.7084 4.77358 1.28862C4.77358 0.868834 5.1293 0.527158 5.56635 0.527158ZM11.0531 12.3672C11.0531 11.9474 11.4089 11.6057 11.8459 11.6057C12.283 11.6057 12.6387 11.9474 12.6387 12.3672C12.6387 12.7869 12.283 13.1286 11.8459 13.1286C11.4089 13.1286 11.0531 12.7869 11.0531 12.3672Z" fill="url(#paint0_linear_59_31619)"/>
<defs>
<linearGradient id="paint0_linear_59_31619" x1="9" y1="0" x2="9" y2="18" gradientUnits="userSpaceOnUse">
<stop stop-color="#6A1B9A"/>
<stop offset="1" stop-color="#D32F2F"/>
</linearGradient>
</defs>
</svg>
