<svg width="20" height="21" viewBox="0 0 20 21" fill="none" xmlns="http://www.w3.org/2000/svg">
<g clip-path="url(#clip0_1275_8963)">
<path d="M19.9977 11.6634C19.9996 11.2521 19.9349 9.70059 19.8855 9.25684C19.3167 4.16402 15.1833 0.467773 10.0577 0.467773C4.71893 0.467773 0.39332 4.58152 0.0998633 10.0362C0.0936133 10.1553 0.0498633 11 0.0467383 11.5028L0.0451758 11.7825C0.0195312 11.8981 0.00390625 12.0175 0.00390625 12.1406V16.3331C0.00390625 17.2487 0.748594 17.9934 1.66422 17.9934H3.34953C4.26516 17.9934 5.01014 17.2487 5.01014 16.3331V12.1409C5.01014 11.2253 4.26482 10.4806 3.34951 10.4806H1.66391C1.55117 10.4806 1.43872 10.492 1.32828 10.5146C1.33766 10.3119 1.34609 10.1518 1.3483 10.1034C1.60549 5.32246 5.39392 1.71777 10.0577 1.71777C14.5358 1.71777 18.1461 4.94715 18.643 9.3959C18.6639 9.58152 18.6908 10.0534 18.7123 10.5271C18.5914 10.499 18.4667 10.4806 18.3373 10.4806H16.6717C15.7561 10.4806 15.0114 11.2253 15.0114 12.1409V16.314C15.0114 16.9462 15.3708 17.4909 15.8921 17.7709L11.8796 19.3462V19.2443C11.8796 18.8993 11.5996 18.6193 11.2546 18.6193H9.37957C9.03455 18.6193 8.75457 18.8993 8.75457 19.2443V19.8693C8.75457 20.2143 9.03455 20.4943 9.37957 20.4943H11.2546C11.2599 20.4943 11.2646 20.4928 11.2699 20.4928L12.3902 20.4884L18.8268 17.9615C18.9112 17.9265 18.9827 17.8743 19.0415 17.8118C19.6049 17.5459 19.9983 16.9771 19.9983 16.314V12.1409C19.9983 12.039 19.9858 11.9399 19.968 11.8433C19.9852 11.7858 19.9974 11.7262 19.9977 11.6633L19.9977 11.6634ZM1.66393 11.7306H3.34928C3.57584 11.7306 3.75988 11.9143 3.75988 12.1409V16.3334C3.75988 16.56 3.57551 16.7437 3.34924 16.7437H1.66395C1.43738 16.7437 1.25365 16.5599 1.25365 16.3334V12.1409C1.25395 11.9143 1.43768 11.7306 1.66393 11.7306ZM16.2611 12.1409C16.2611 11.9143 16.4449 11.7306 16.6715 11.7306H18.3371C18.5637 11.7306 18.7477 11.9143 18.7477 12.1409V16.314C18.7477 16.5406 18.5633 16.7243 18.3371 16.7243H16.6714C16.4449 16.7243 16.2611 16.5406 16.2611 16.314V12.1409Z" fill="black"/>
</g>
<defs>
<clipPath id="clip0_1275_8963">
<rect width="20" height="20" fill="white" transform="translate(0.000976562 0.480469)"/>
</clipPath>
</defs>
</svg>
