<svg width="34" height="35" viewBox="0 0 34 35" fill="none" xmlns="http://www.w3.org/2000/svg">
<path fill-rule="evenodd" clip-rule="evenodd" d="M17.194 0.95166C19.3827 0.95165 21.55 1.38274 23.5721 2.22031C25.5942 3.05788 27.4315 4.28554 28.9791 5.83318C30.5268 7.38082 31.7544 9.21814 32.592 11.2402C33.4296 13.2623 33.8607 15.4296 33.8607 17.6183C33.8607 26.8231 26.3988 34.285 17.194 34.285C7.9893 34.285 0.527344 26.8231 0.527344 17.6183C0.527344 8.41361 7.9893 0.95166 17.194 0.95166ZM18.8607 19.285H15.5273C11.4012 19.285 7.85875 21.784 6.33086 25.3513C8.74836 28.7412 12.713 30.9517 17.194 30.9517C21.6749 30.9517 25.6396 28.7412 28.0572 25.351C26.5293 21.784 22.9869 19.285 18.8607 19.285ZM17.194 5.95166C14.4326 5.95166 12.194 8.19026 12.194 10.9517C12.194 13.7131 14.4326 15.9517 17.194 15.9517C19.9554 15.9517 22.194 13.7131 22.194 10.9517C22.194 8.19026 19.9555 5.95166 17.194 5.95166Z" fill="black"/>
</svg>
