<svg width="19" height="19" viewBox="0 0 19 19" fill="none" xmlns="http://www.w3.org/2000/svg">
<path d="M16.9574 18.9053L10.6574 12.6053C10.1574 13.0053 9.58242 13.3219 8.93242 13.5553C8.28242 13.7886 7.59076 13.9053 6.85742 13.9053C5.04076 13.9053 3.50326 13.2761 2.24492 12.0178C0.986589 10.7594 0.357422 9.22194 0.357422 7.40527C0.357422 5.58861 0.986589 4.05111 2.24492 2.79277C3.50326 1.53444 5.04076 0.905273 6.85742 0.905273C8.67409 0.905273 10.2116 1.53444 11.4699 2.79277C12.7283 4.05111 13.3574 5.58861 13.3574 7.40527C13.3574 8.13861 13.2408 8.83027 13.0074 9.48027C12.7741 10.1303 12.4574 10.7053 12.0574 11.2053L18.3574 17.5053L16.9574 18.9053ZM6.85742 11.9053C8.10742 11.9053 9.16992 11.4678 10.0449 10.5928C10.9199 9.71777 11.3574 8.65527 11.3574 7.40527C11.3574 6.15527 10.9199 5.09277 10.0449 4.21777C9.16992 3.34277 8.10742 2.90527 6.85742 2.90527C5.60742 2.90527 4.54492 3.34277 3.66992 4.21777C2.79492 5.09277 2.35742 6.15527 2.35742 7.40527C2.35742 8.65527 2.79492 9.71777 3.66992 10.5928C4.54492 11.4678 5.60742 11.9053 6.85742 11.9053Z" fill="black"/>
</svg>
