<svg width="22" height="21" viewBox="0 0 22 21" fill="none" xmlns="http://www.w3.org/2000/svg">
<path d="M8.25117 20.4805L7.85117 17.2805C7.63451 17.1971 7.43034 17.0971 7.23867 16.9805C7.04701 16.8638 6.85951 16.7388 6.67617 16.6055L3.70117 17.8555L0.951172 13.1055L3.52617 11.1555C3.50951 11.0388 3.50117 10.9263 3.50117 10.818V10.143C3.50117 10.0346 3.50951 9.92214 3.52617 9.80547L0.951172 7.85547L3.70117 3.10547L6.67617 4.35547C6.85951 4.22214 7.05117 4.09714 7.25117 3.98047C7.45117 3.8638 7.65117 3.7638 7.85117 3.68047L8.25117 0.480469H13.7512L14.1512 3.68047C14.3678 3.7638 14.572 3.8638 14.7637 3.98047C14.9553 4.09714 15.1428 4.22214 15.3262 4.35547L18.3012 3.10547L21.0512 7.85547L18.4762 9.80547C18.4928 9.92214 18.5012 10.0346 18.5012 10.143V10.818C18.5012 10.9263 18.4845 11.0388 18.4512 11.1555L21.0262 13.1055L18.2762 17.8555L15.3262 16.6055C15.1428 16.7388 14.9512 16.8638 14.7512 16.9805C14.5512 17.0971 14.3512 17.1971 14.1512 17.2805L13.7512 20.4805H8.25117ZM10.0012 18.4805H11.9762L12.3262 15.8305C12.8428 15.6971 13.322 15.5013 13.7637 15.243C14.2053 14.9846 14.6095 14.6721 14.9762 14.3055L17.4512 15.3305L18.4262 13.6305L16.2762 12.0055C16.3595 11.7721 16.4178 11.5263 16.4512 11.268C16.4845 11.0096 16.5012 10.7471 16.5012 10.4805C16.5012 10.2138 16.4845 9.9513 16.4512 9.69297C16.4178 9.43464 16.3595 9.1888 16.2762 8.95547L18.4262 7.33047L17.4512 5.63047L14.9762 6.68047C14.6095 6.29714 14.2053 5.9763 13.7637 5.71797C13.322 5.45964 12.8428 5.2638 12.3262 5.13047L12.0012 2.48047H10.0262L9.67617 5.13047C9.15951 5.2638 8.68034 5.45964 8.23867 5.71797C7.79701 5.9763 7.39284 6.2888 7.02617 6.65547L4.55117 5.63047L3.57617 7.33047L5.72617 8.93047C5.64284 9.18047 5.58451 9.43047 5.55117 9.68047C5.51784 9.93047 5.50117 10.1971 5.50117 10.4805C5.50117 10.7471 5.51784 11.0055 5.55117 11.2555C5.58451 11.5055 5.64284 11.7555 5.72617 12.0055L3.57617 13.6305L4.55117 15.3305L7.02617 14.2805C7.39284 14.6638 7.79701 14.9846 8.23867 15.243C8.68034 15.5013 9.15951 15.6971 9.67617 15.8305L10.0012 18.4805ZM11.0512 13.9805C12.0178 13.9805 12.8428 13.6388 13.5262 12.9555C14.2095 12.2721 14.5512 11.4471 14.5512 10.4805C14.5512 9.5138 14.2095 8.6888 13.5262 8.00547C12.8428 7.32214 12.0178 6.98047 11.0512 6.98047C10.0678 6.98047 9.23867 7.32214 8.56367 8.00547C7.88867 8.6888 7.55117 9.5138 7.55117 10.4805C7.55117 11.4471 7.88867 12.2721 8.56367 12.9555C9.23867 13.6388 10.0678 13.9805 11.0512 13.9805Z" fill="#1D1B20"/>
</svg>
