<svg width="22" height="19" viewBox="0 0 22 19" fill="none" xmlns="http://www.w3.org/2000/svg">
<path d="M4.00098 18.4805C3.71764 18.4805 3.48031 18.3845 3.28898 18.1925C3.09764 18.0005 3.00164 17.7631 3.00098 17.4805V16.4805C2.16764 16.4805 1.45931 16.1888 0.875977 15.6055C0.292643 15.0221 0.000976562 14.3138 0.000976562 13.4805V8.48047C0.000976562 7.64714 0.292643 6.9388 0.875977 6.35547C1.45931 5.77214 2.16764 5.48047 3.00098 5.48047V3.48047C3.00098 2.64714 3.29264 1.9388 3.87598 1.35547C4.45931 0.772135 5.16764 0.480469 6.00098 0.480469H16.001C16.8343 0.480469 17.5426 0.772135 18.126 1.35547C18.7093 1.9388 19.001 2.64714 19.001 3.48047V5.48047C19.8343 5.48047 20.5426 5.77214 21.126 6.35547C21.7093 6.9388 22.001 7.64714 22.001 8.48047V13.4805C22.001 14.3138 21.7093 15.0221 21.126 15.6055C20.5426 16.1888 19.8343 16.4805 19.001 16.4805V17.4805C19.001 17.7638 18.905 18.0015 18.713 18.1935C18.521 18.3855 18.2836 18.4811 18.001 18.4805C17.7183 18.4798 17.481 18.3838 17.289 18.1925C17.097 18.0011 17.001 17.7638 17.001 17.4805V16.4805H5.00098V17.4805C5.00098 17.7638 4.90498 18.0015 4.71298 18.1935C4.52098 18.3855 4.28364 18.4811 4.00098 18.4805ZM3.00098 14.4805H19.001C19.2843 14.4805 19.522 14.3845 19.714 14.1925C19.906 14.0005 20.0016 13.7631 20.001 13.4805V8.48047C20.001 8.19714 19.905 7.9598 19.713 7.76847C19.521 7.57714 19.2836 7.48114 19.001 7.48047C18.7183 7.4798 18.481 7.5758 18.289 7.76847C18.097 7.96114 18.001 8.19847 18.001 8.48047V12.4805H4.00098V8.48047C4.00098 8.19714 3.90498 7.9598 3.71298 7.76847C3.52098 7.57714 3.28364 7.48114 3.00098 7.48047C2.71831 7.4798 2.48098 7.5758 2.28898 7.76847C2.09698 7.96114 2.00098 8.19847 2.00098 8.48047V13.4805C2.00098 13.7638 2.09698 14.0015 2.28898 14.1935C2.48098 14.3855 2.71831 14.4811 3.00098 14.4805ZM6.00098 10.4805H16.001V8.48047C16.001 8.03047 16.0926 7.62214 16.276 7.25547C16.4593 6.8888 16.701 6.5638 17.001 6.28047V3.48047C17.001 3.19714 16.905 2.9598 16.713 2.76847C16.521 2.57714 16.2836 2.48114 16.001 2.48047H6.00098C5.71764 2.48047 5.48031 2.57647 5.28898 2.76847C5.09764 2.96047 5.00164 3.1978 5.00098 3.48047V6.28047C5.30098 6.5638 5.54264 6.8888 5.72598 7.25547C5.90931 7.62214 6.00098 8.03047 6.00098 8.48047V10.4805Z" fill="black"/>
</svg>
