<svg width="20" height="21" viewBox="0 0 20 21" fill="none" xmlns="http://www.w3.org/2000/svg">
<path d="M7.59198 12.9067L7.91176 12.9081C12.5562 12.9485 15.184 13.8865 15.184 16.4487C15.184 18.9566 12.6655 19.924 8.22412 20.0051L7.59198 20.0107C2.74764 20.0107 0.000976562 19.0898 0.000976562 16.4687C0.000976562 13.8441 2.75857 12.9067 7.59198 12.9067ZM7.59198 14.4067C3.57463 14.4067 1.50098 15.1116 1.50098 16.4687C1.50098 17.8171 3.56965 18.5107 7.59198 18.5107C11.6096 18.5107 13.684 17.8057 13.684 16.4487C13.684 15.101 11.6134 14.4067 7.59198 14.4067ZM15.5877 12.1985C16.1682 12.238 16.7454 12.3212 17.3001 12.4442C18.4882 12.6805 19.3714 13.1217 19.7762 13.9708C20.075 14.5996 20.075 15.331 19.7762 15.9597C19.3738 16.8067 18.4997 17.2447 17.3049 17.4904C16.8992 17.5739 16.5026 17.3126 16.4192 16.9069C16.3357 16.5012 16.597 16.1046 17.0027 16.0212C17.7715 15.863 18.2832 15.6066 18.4214 15.3158C18.5266 15.0946 18.5266 14.836 18.4217 14.6155C18.2826 14.3236 17.7683 14.0667 16.9917 13.9121C16.4943 13.802 15.9915 13.7295 15.4859 13.6951C15.0726 13.667 14.7604 13.3092 14.7885 12.8959C14.8166 12.4826 15.1744 12.1704 15.5877 12.1985ZM7.59198 0.950195C10.44 0.950195 12.727 3.2368 12.727 6.0842C12.727 8.93241 10.4402 11.2192 7.59198 11.2192C4.7439 11.2192 2.45798 8.93255 2.45798 6.0842C2.45798 3.23666 4.74408 0.950195 7.59198 0.950195ZM14.0207 2.0198C16.2556 2.0198 18.0677 3.83227 18.0677 6.06679C18.0677 8.30201 16.2559 10.1138 14.0207 10.1138C13.6065 10.1138 13.2707 9.77801 13.2707 9.3638C13.2707 8.94958 13.6065 8.6138 14.0207 8.6138C15.4275 8.6138 16.5677 7.47358 16.5677 6.06679C16.5677 4.66063 15.4271 3.5198 14.0207 3.5198C13.6065 3.5198 13.2707 3.18401 13.2707 2.7698C13.2707 2.35558 13.6065 2.0198 14.0207 2.0198ZM7.59198 2.4502C5.57256 2.4502 3.95798 4.06504 3.95798 6.0842C3.95798 8.10423 5.57244 9.7192 7.59198 9.7192C9.61176 9.7192 11.227 8.10398 11.227 6.0842C11.227 4.06528 9.61164 2.4502 7.59198 2.4502Z" fill="black"/>
</svg>
