<svg width="26" height="18" viewBox="0 0 26 18" fill="none" xmlns="http://www.w3.org/2000/svg">
<mask id="mask0_59_69520" style="mask-type:alpha" maskUnits="userSpaceOnUse" x="0" y="0" width="26" height="17">
<path d="M23.396 0.200195H3.00513C1.67163 0.200195 0.600586 1.20305 0.600586 2.44016V14.7602C0.600586 15.9973 1.67163 17.0002 3.00513 17.0002H23.396C24.7295 17.0002 25.8006 15.9973 25.8006 14.7602V2.44016C25.8006 1.20305 24.7295 0.200195 23.396 0.200195Z" fill="white"/>
</mask>
<g mask="url(#mask0_59_69520)">
<path d="M23.396 0.200195H3.00513C1.67163 0.200195 0.600586 1.20305 0.600586 2.44016V14.7602C0.600586 15.9973 1.67163 17.0002 3.00513 17.0002H23.396C24.7295 17.0002 25.8006 15.9973 25.8006 14.7602V2.44016C25.8006 1.20305 24.7295 0.200195 23.396 0.200195Z" fill="white"/>
<path fill-rule="evenodd" clip-rule="evenodd" d="M0.600586 0.200195H11.4051V8.04023H0.600586V0.200195Z" fill="black"/>
<path fill-rule="evenodd" clip-rule="evenodd" d="M1.79785 1.31982V2.43975H3.00538V1.31982H1.79785ZM4.20239 1.31982V2.43975H5.39928V1.31982H4.20239ZM6.60681 1.31982V2.43975H7.80382V1.31982H6.60681ZM9.00084 1.31982V2.43975H10.1979V1.31982H9.00084ZM7.80382 2.43975V3.55979H9.00084V2.43975H7.80382ZM5.39928 2.43975V3.55979H6.60681V2.43975H5.39928ZM3.00538 2.43975V3.55979H4.20239V2.43975H3.00538ZM1.79785 3.55979V4.67982H3.00538V3.55979H1.79785ZM4.20239 3.55979V4.67982H5.39928V3.55979H4.20239ZM6.60681 3.55979V4.67982H7.80382V3.55979H6.60681ZM9.00084 3.55979V4.67982H10.1979V3.55979H9.00084ZM1.79785 5.79975V6.91979H3.00538V5.79975H1.79785ZM4.20239 5.79975V6.91979H5.39928V5.79975H4.20239ZM6.60681 5.79975V6.91979H7.80382V5.79975H6.60681ZM9.00084 5.79975V6.91979H10.1979V5.79975H9.00084ZM7.80382 4.67982V5.79975H9.00084V4.67982H7.80382ZM5.39928 4.67982V5.79975H6.60681V4.67982H5.39928ZM3.00538 4.67982V5.79975H4.20239V4.67982H3.00538Z" fill="#A7B6E7"/>
<path fill-rule="evenodd" clip-rule="evenodd" d="M11.4051 0.200195V1.32023H25.8006V0.200195H11.4051ZM11.4051 2.44016V3.5602H25.8006V2.44016H11.4051ZM11.4051 4.68023V5.80016H25.8006V4.68023H11.4051ZM11.4051 6.92019V8.04023H25.8006V6.92019H11.4051ZM0.600586 9.16016V10.2802H25.8006V9.16016H0.600586ZM0.600586 11.4002V12.5202H25.8006V11.4002H0.600586ZM0.600586 13.6402V14.7602H25.8006V13.6402H0.600586ZM0.600586 15.8802V17.0002H25.8006V15.8802H0.600586Z" fill="#ED4C49"/>
<path d="M23.3962 0.760254H2.99481C2.00781 0.760254 1.19922 1.51247 1.19922 2.44025V14.7603C1.19922 15.6881 2.00781 16.4403 2.99481 16.4403H23.3962C24.3937 16.4403 25.2023 15.6881 25.2023 14.7603V2.44025C25.2023 1.51247 24.3937 0.760254 23.3962 0.760254Z" stroke="black" stroke-opacity="0.1" stroke-width="1.2"/>
</g>
</svg>
