<svg width="12" height="21" viewBox="0 0 12 21" fill="none" xmlns="http://www.w3.org/2000/svg">
<path d="M3.12497 20.6187C2.37923 20.6187 1.87019 20.2212 1.89565 19.5197L2.08144 9.67713C2.08144 9.36109 1.944 9.13843 1.65894 9.02351C0.429623 8.50876 -0.0666869 7.97006 0.00712325 6.43777L0.256551 1.08432C0.279457 0.698848 0.503433 0.488158 0.877574 0.488158C1.25172 0.488158 1.46042 0.710819 1.46042 1.09629L1.38661 6.32284C1.38661 6.62691 1.61059 6.82563 1.89565 6.82563C2.21888 6.82563 2.43013 6.62691 2.43013 6.34679L2.51667 0.957423C2.51667 0.583926 2.7661 0.385207 3.12497 0.385207C3.48384 0.385207 3.74599 0.583926 3.74599 0.957423L3.8198 6.34679C3.8198 6.62691 4.04378 6.82563 4.35429 6.82563C4.6648 6.82563 4.86332 6.62691 4.86332 6.32284L4.80224 1.09629C4.80224 0.710819 5.02621 0.488158 5.38508 0.488158C5.74395 0.488158 5.96793 0.698848 5.98066 1.08432L6.26572 6.43777C6.33953 7.97006 5.83049 8.50636 4.61389 9.02112C4.31611 9.13843 4.1914 9.36109 4.1914 9.67474L4.36447 19.5173C4.38992 20.2188 3.88088 20.6163 3.12242 20.6163L3.12497 20.6187ZM9.71189 13.278C9.72461 12.9165 9.57445 12.6579 9.23848 12.4353L8.7549 12.0953C8.2815 11.7792 8.04734 11.3579 8.04734 10.7282V10.1201C8.04734 6.55508 9.01705 2.91828 10.5085 0.931086C10.7936 0.545619 11.0303 0.382812 11.3663 0.382812C11.7022 0.382812 12 0.55759 12 1.00291V19.5556C12 20.2452 11.5164 20.6187 10.7325 20.6187C9.94859 20.6187 9.465 20.2212 9.49045 19.4383L9.71443 13.278H9.71189Z" fill="#007AFF"/>
</svg>
