<svg width="9" height="16" viewBox="0 0 9 16" fill="none" xmlns="http://www.w3.org/2000/svg">
<path d="M0 14.2918V14.1566C0 12.1252 1.94643 10.0617 2.93452 9.00417C3.46825 8.42715 3.51587 7.79006 2.93452 7.16156C1.94643 6.10189 0 4.04906 0 2.00696V1.89112C0 0.949437 0.494048 0.466797 1.31746 0.466797H7.68254C8.50595 0.466797 9 0.949437 9 1.89112V2.00696C9 4.04906 7.05357 6.10189 6.06548 7.15941C5.48413 7.78792 5.52381 8.42715 6.06548 9.00203C7.05357 10.0595 9 12.1231 9 14.1545V14.2896C9 15.2313 8.50595 15.7139 7.68254 15.7139H1.31746C0.494048 15.7139 0 15.2313 0 14.2896V14.2918ZM7.72222 3.53639C7.86706 3.25324 7.78968 3.02372 7.5377 3.02372H1.4623C1.2004 3.02372 1.12302 3.25324 1.27778 3.53639C1.72421 4.36439 3.38889 6.207 3.9127 6.67892C4.33929 7.05645 4.65873 7.05645 5.0754 6.67892C5.60913 6.207 7.27381 4.36439 7.72024 3.53639H7.72222Z" fill="#FF9500"/>
</svg>
