<svg width="16" height="17" viewBox="0 0 16 17" fill="none" xmlns="http://www.w3.org/2000/svg">
<path d="M3.99876 6.49675V1.83008H11.9988V6.49675M3.99876 12.4967H2.66543C2.3118 12.4967 1.97267 12.3563 1.72262 12.1062C1.47257 11.8562 1.33209 11.517 1.33209 11.1634V7.83008C1.33209 7.47646 1.47257 7.13732 1.72262 6.88727C1.97267 6.63722 2.3118 6.49675 2.66543 6.49675H13.3321C13.6857 6.49675 14.0249 6.63722 14.2749 6.88727C14.525 7.13732 14.6654 7.47646 14.6654 7.83008V11.1634C14.6654 11.517 14.525 11.8562 14.2749 12.1062C14.0249 12.3563 13.6857 12.4967 13.3321 12.4967H11.9988M3.99876 9.83008H11.9988V15.1634H3.99876V9.83008Z" stroke="black" stroke-width="1.5" stroke-linecap="round" stroke-linejoin="round"/>
</svg>
