<svg width="150" height="150" viewBox="0 0 150 150" fill="none" xmlns="http://www.w3.org/2000/svg">
<path d="M17.6881 114.95V100.685C17.6881 99.2918 17.3636 98.3723 16.363 97.3176L6.26228 87.1493C-2.05359 78.8334 -2.1212 71.099 6.26228 62.7831L16.363 52.6148C17.3501 51.6277 17.6881 50.6406 17.6881 49.3155V34.9824C17.6881 23.0968 23.1644 17.6881 34.9824 17.6881H49.3155C50.6406 17.6881 51.6277 17.3636 52.6148 16.363L62.7831 6.26228C71.099 -2.05359 78.8334 -2.1212 87.1493 6.26228L97.3176 16.363C98.3723 17.3501 99.2918 17.6881 100.685 17.6881H114.95C126.836 17.6881 132.244 23.232 132.244 34.9824V49.3155C132.244 50.6406 132.636 51.6277 133.637 52.6148L143.738 62.7831C152.054 71.099 152.121 78.8334 143.738 87.1493L133.637 97.3176C132.65 98.3723 132.244 99.2918 132.244 100.685V114.95C132.244 126.836 126.768 132.244 114.95 132.244H100.685C99.2918 132.244 98.3723 132.636 97.3176 133.637L87.1493 143.738C78.8334 152.054 71.099 152.121 62.7831 143.738L52.6148 133.637C51.6277 132.65 50.6406 132.244 49.3155 132.244H34.9824C23.1644 132.244 17.6881 126.768 17.6881 114.95ZM73.1543 104.065L104.187 55.1433C104.984 53.8182 105.836 52.3038 105.836 50.7893C105.836 47.7469 103.132 45.7728 100.292 45.7728C98.5075 45.7728 96.7903 46.7599 95.5327 48.8152L67.3399 94.113L53.9399 76.8187C52.2902 74.6417 50.8434 73.9791 48.9909 73.9791C45.9486 73.9791 43.6363 76.4265 43.6363 79.4554C43.6363 80.9022 44.2313 82.4302 45.2184 83.7418L61.796 104.078C63.5133 106.391 65.3658 107.243 67.6104 107.243C69.855 107.243 71.7751 106.188 73.1543 104.078V104.065Z" fill="#34C759"/>
</svg>
