<svg width="34" height="34" viewBox="0 0 34 34" fill="none" xmlns="http://www.w3.org/2000/svg">
<path fill-rule="evenodd" clip-rule="evenodd" d="M17.2897 0.238281C19.4784 0.238271 21.6457 0.669359 23.6678 1.50693C25.6899 2.3445 27.5272 3.57216 29.0748 5.1198C30.6225 6.66744 31.8501 8.50476 32.6877 10.5269C33.5253 12.549 33.9564 14.7162 33.9564 16.9049C33.9564 26.1097 26.4945 33.5716 17.2897 33.5716C8.085 33.5716 0.623047 26.1097 0.623047 16.9049C0.623047 7.70023 8.085 0.238281 17.2897 0.238281ZM18.9564 18.5716H15.623C11.4969 18.5716 7.95445 21.0706 6.42656 24.6379C8.84406 28.0278 12.8088 30.2383 17.2897 30.2383C21.7706 30.2383 25.7353 28.0278 28.1529 24.6377C26.625 21.0706 23.0826 18.5716 18.9564 18.5716ZM17.2897 5.23828C14.5283 5.23828 12.2897 7.47688 12.2897 10.2383C12.2897 12.9997 14.5283 15.2383 17.2897 15.2383C20.0511 15.2383 22.2897 12.9997 22.2897 10.2383C22.2897 7.47688 20.0512 5.23828 17.2897 5.23828Z" fill="black"/>
</svg>
