<svg width="21" height="21" viewBox="0 0 21 21" fill="none" xmlns="http://www.w3.org/2000/svg">
<path d="M20.7557 0.923139H19.6176H15.2394H13.5612L12.3279 2.01629L6.23766 7.4144H1.1381V2.01629H4.98015C5.20284 2.57564 5.76569 2.97418 6.42577 2.97418C7.28031 2.97418 7.97452 2.30739 7.97452 1.48661C7.97452 0.665817 7.28031 -0.000976562 6.42577 -0.000976562C5.77889 -0.000976562 5.22458 0.381399 4.99303 0.923139H1.1381H0V2.01629V7.4144V8.50756H1.1381H5.00433H6.68253L7.91584 7.4144L14.0061 2.01629H19.5459H19.6176V3.44026V7.4144H15.1339H13.4557L12.2223 8.50756L7.51271 12.6819L6.37461 13.6907V15.1782V19.6851V20.7782H7.51271H13.1403H14.2784V19.6851V15.6458C14.8336 15.4196 15.2236 14.8909 15.2236 14.2757C15.2236 13.4549 14.5294 12.7881 13.6749 12.7881C12.8204 12.7881 12.1261 13.4549 12.1261 14.2757C12.1261 14.9158 12.5491 15.4606 13.1403 15.6702V19.6851H7.51271V14.1694L13.9005 8.50756H19.6176H20.7556V7.4144V2.4315V2.01629V0.944049L20.7792 0.923139H20.7557ZM6.4258 0.607576C6.93033 0.607576 7.34098 1.00201 7.34098 1.48661C7.34098 1.9712 6.93033 2.36563 6.4258 2.36563C5.92128 2.36563 5.51063 1.9712 5.51063 1.48661C5.51063 1.00201 5.92128 0.607576 6.4258 0.607576ZM12.7598 14.2757C12.7598 13.7911 13.1704 13.3966 13.6749 13.3966C14.1795 13.3966 14.5901 13.7911 14.5901 14.2757C14.5901 14.7603 14.1795 15.1547 13.6749 15.1547C13.1704 15.1547 12.7598 14.7603 12.7598 14.2757Z" fill="url(#paint0_linear_59_15381)"/>
<defs>
<linearGradient id="paint0_linear_59_15381" x1="10.3896" y1="-0.000976563" x2="10.3896" y2="20.7782" gradientUnits="userSpaceOnUse">
<stop stop-color="#6A1B9A"/>
<stop offset="1" stop-color="#D32F2F"/>
</linearGradient>
</defs>
</svg>
