<svg width="24" height="25" viewBox="0 0 24 25" fill="none" xmlns="http://www.w3.org/2000/svg">
<path d="M11 4.40062H4C3.46957 4.40062 2.96086 4.61133 2.58579 4.9864C2.21071 5.36148 2 5.87018 2 6.40062V20.4006C2 20.931 2.21071 21.4398 2.58579 21.8148C2.96086 22.1899 3.46957 22.4006 4 22.4006H18C18.5304 22.4006 19.0391 22.1899 19.4142 21.8148C19.7893 21.4398 20 20.931 20 20.4006V13.4006M18.5 2.90062C18.8978 2.50279 19.4374 2.2793 20 2.2793C20.5626 2.2793 21.1022 2.50279 21.5 2.90062C21.8978 3.29844 22.1213 3.83801 22.1213 4.40062C22.1213 4.96323 21.8978 5.50279 21.5 5.90062L12 15.4006L8 16.4006L9 12.4006L18.5 2.90062Z" stroke="white" stroke-width="2.1" stroke-linecap="round" stroke-linejoin="round"/>
</svg>
