<svg width="24" height="24" viewBox="0 0 24 24" fill="none" xmlns="http://www.w3.org/2000/svg">
<path d="M19.1021 8.70693C18.8792 6.2793 17.4757 4.12683 15.3642 2.974C13.2525 1.82117 10.7135 1.82117 8.60214 2.974C6.49067 4.12702 5.08713 6.27949 4.86422 8.70693C3.75476 8.94671 2.81747 9.69628 2.32614 10.7363C1.83481 11.7763 1.84506 12.9893 2.35409 14.0205C2.86291 15.0517 3.81299 15.7848 4.92628 16.0051C5.20162 17.708 6.06205 19.2562 7.3544 20.3739C8.64671 21.4917 10.287 22.1067 11.9834 22.1094H13.0173C13.6803 22.1094 14.3161 21.8413 14.7849 21.3644C15.2537 20.8876 15.5169 20.2407 15.5169 19.5662C15.5169 18.8916 15.2537 18.2447 14.7849 17.7678C14.3161 17.2908 13.6803 17.023 13.0173 17.023C12.3544 17.023 11.7186 17.2908 11.2498 17.7678C10.781 18.2447 10.5176 18.8916 10.5176 19.5662V20.3341C9.41047 20.0256 8.42269 19.3796 7.68703 18.4829C6.95133 17.5863 6.50311 16.4821 6.40248 15.3187C6.4775 11.1317 6.48255 9.79566 6.38445 9.26966H6.38427C6.40699 7.2346 7.49498 5.36632 9.23864 4.36846C10.9823 3.37085 13.1167 3.39541 14.8379 4.43304C16.559 5.47048 17.6051 7.36338 17.5826 9.39858V9.44334C17.4715 15.4923 17.5181 15.5501 17.8024 15.8474H17.8022C17.9505 15.9982 18.1511 16.0833 18.3607 16.0841C19.5672 16.0644 20.6868 15.4414 21.3539 14.4185C22.0212 13.3955 22.1504 12.1038 21.6994 10.9651C21.2486 9.82643 20.2753 8.98657 19.0975 8.72L19.1021 8.70693Z" fill="url(#paint0_linear_758_84626)"/>
<defs>
<linearGradient id="paint0_linear_758_84626" x1="11.9648" y1="2.10937" x2="11.9648" y2="22.1094" gradientUnits="userSpaceOnUse">
<stop stop-color="#6A1B9A"/>
<stop offset="1" stop-color="#D32F2F"/>
</linearGradient>
</defs>
</svg>
