<svg width="40" height="40" viewBox="0 0 40 40" fill="none" xmlns="http://www.w3.org/2000/svg">
<path d="M24.3463 32.8183C24.8406 33.2209 24.9189 33.9528 24.5212 34.4532C24.2273 34.8231 23.8876 35.1543 23.5275 35.4257C22.3148 36.3773 20.773 36.8088 19.2418 36.6264C17.7093 36.4438 16.3113 35.661 15.3573 34.4489C14.962 33.9466 15.0438 33.2151 15.54 32.8149C16.0362 32.4147 16.7589 32.4975 17.1542 32.9998C17.7295 33.7308 18.5775 34.2056 19.5103 34.3167C20.4445 34.428 21.3843 34.165 22.1373 33.5744C22.3593 33.4069 22.5589 33.2123 22.7312 32.9955C23.1289 32.4951 23.852 32.4158 24.3463 32.8183ZM8.58655 15.0002L8.60707 14.0072C8.62174 13.5824 8.64444 13.1881 8.67775 12.8022C9.17725 7.40826 14.3258 3.33398 19.941 3.33398H20.0599C25.6721 3.33398 30.8221 7.40541 31.3386 12.8096C31.3683 13.1531 31.381 13.4583 31.3848 13.8874L31.3863 15.2004C31.3876 15.3199 31.3896 15.4251 31.3927 15.5232L31.4081 15.8503L31.4823 16.1621C31.7168 17.0307 32.129 17.8427 32.6934 18.5477L32.9446 18.8431L33.0474 18.9751C33.7244 19.9868 34.1111 21.164 34.1663 22.4319L34.1647 23.104C34.1175 24.6056 33.5662 26.0558 32.5561 27.2643C31.2182 28.6841 29.4053 29.5662 27.4786 29.7435C22.503 30.2838 17.483 30.2838 12.5213 29.7449C10.5813 29.5583 8.77374 28.6789 7.37739 27.2045C6.34771 25.9492 5.80037 24.3686 5.83451 22.7714L5.83592 22.3743C5.89541 21.1599 6.27974 19.9837 6.94861 18.9676L7.06057 18.8236C7.84175 17.9672 8.37583 16.9191 8.60756 15.7891L8.58249 15.8906L8.58655 15.0002ZM20.0599 5.65957H19.941C15.4439 5.65957 11.3464 8.90209 10.9658 13.0119C10.9463 13.2378 10.9308 13.4708 10.9186 13.716L10.8919 14.4933L10.881 16.0254L10.857 16.2618C10.5404 17.8057 9.81182 19.2355 8.7485 20.4013L8.83061 20.3061L8.68375 20.5491C8.40865 21.0448 8.23117 21.5832 8.16104 22.1144L8.13193 22.4319L8.13166 22.7963C8.10915 23.8577 8.46778 24.8934 9.08916 25.6558C10.0477 26.6648 11.3444 27.2957 12.7525 27.4312C17.5651 27.9538 22.4209 27.9538 27.2519 27.4294C28.6448 27.3011 29.9406 26.6706 30.847 25.7118C31.5329 24.889 31.8954 23.8501 31.8689 22.7566L31.8703 22.4842C31.8351 21.6983 31.5847 20.9361 31.1453 20.2793L31.1707 20.3216L30.9409 20.0521C30.1486 19.0741 29.573 17.9398 29.2525 16.7239L29.1444 16.2643L29.1229 16.1098C29.1067 15.8842 29.0972 15.6837 29.0922 15.4425L29.0877 13.9348C29.0846 13.5514 29.0742 13.2933 29.0509 13.0228C28.657 8.90191 24.5557 5.65957 20.0599 5.65957Z" fill="black"/>
</svg>
