<svg width="22" height="21" viewBox="0 0 22 21" fill="none" xmlns="http://www.w3.org/2000/svg">
<path d="M19.3192 9.7819V13.1152C19.3192 16.0319 17.6179 17.2819 15.0661 17.2819H6.55978C4.0079 17.2819 2.30664 16.0319 2.30664 13.1152V7.2819C2.30664 4.36523 4.0079 3.11523 6.55978 3.11523H10.8129" stroke="black" stroke-opacity="0.5" stroke-width="1.5" stroke-miterlimit="10" stroke-linecap="round" stroke-linejoin="round"/>
<path d="M6.56055 7.69922L9.22301 9.78255C10.0992 10.4659 11.5367 10.4659 12.4129 9.78255" stroke="black" stroke-opacity="0.5" stroke-width="1.5" stroke-miterlimit="10" stroke-linecap="round" stroke-linejoin="round"/>
<path d="M17.1765 2.54844L17.4147 3.02343C17.5337 3.25676 17.8315 3.47344 18.0951 3.52344L18.4184 3.57343C19.3881 3.73177 19.6178 4.43177 18.9203 5.12343L18.6225 5.41509C18.4269 5.61509 18.3163 5.99843 18.3759 6.2651L18.4184 6.4401C18.6821 7.5901 18.0611 8.03176 17.0404 7.43176L16.8192 7.30676C16.5555 7.15676 16.1302 7.15676 15.8665 7.30676L15.6453 7.43176C14.6161 8.04009 13.9951 7.5901 14.2673 6.4401L14.3098 6.2651C14.3694 5.99843 14.2588 5.61509 14.0632 5.41509L13.7655 5.12343C13.0679 4.43177 13.2976 3.73177 14.2673 3.57343L14.5906 3.52344C14.8458 3.48177 15.152 3.25676 15.2711 3.02343L15.5092 2.54844C15.9686 1.6401 16.7171 1.6401 17.1765 2.54844Z" stroke="black" stroke-opacity="0.5" stroke-width="1.5" stroke-linecap="round" stroke-linejoin="round"/>
</svg>
