<svg width="28" height="28" viewBox="0 0 28 28" fill="none" xmlns="http://www.w3.org/2000/svg">
<path d="M14.0003 0.666016C6.64833 0.666016 0.666992 6.64735 0.666992 13.9993V19.5233C0.666992 20.8887 1.86299 21.9993 3.33366 21.9993H4.66699C5.02061 21.9993 5.35975 21.8589 5.6098 21.6088C5.85985 21.3588 6.00033 21.0196 6.00033 20.666V13.8087C6.00033 13.4551 5.85985 13.1159 5.6098 12.8659C5.35975 12.6158 5.02061 12.4753 4.66699 12.4753H3.45633C4.19766 7.31535 8.63766 3.33268 14.0003 3.33268C19.363 3.33268 23.803 7.31535 24.5443 12.4753H23.3337C22.98 12.4753 22.6409 12.6158 22.3909 12.8659C22.1408 13.1159 22.0003 13.4551 22.0003 13.8087V21.9993C22.0003 23.47 20.8043 24.666 19.3337 24.666H16.667V23.3327H11.3337V27.3327H19.3337C22.275 27.3327 24.667 24.9407 24.667 21.9993C26.1377 21.9993 27.3337 20.8887 27.3337 19.5233V13.9993C27.3337 6.64735 21.3523 0.666016 14.0003 0.666016Z" fill="black"/>
</svg>
