<svg width="24" height="28" viewBox="0 0 24 28" fill="none" xmlns="http://www.w3.org/2000/svg">
<path d="M12.0135 0.666072C15.0993 0.666072 17.8106 2.59803 18.8043 5.42154C18.988 5.94341 18.7068 6.51295 18.1763 6.69365C17.6459 6.87434 17.067 6.59776 16.8833 6.07589C16.1709 4.05173 14.2263 2.66607 12.0094 2.66607C9.25345 2.65532 6.99408 4.77461 6.84425 7.44703L6.83639 7.70733L6.83633 9.50068L17.1781 9.50115C20.4805 9.50115 23.1756 12.0603 23.327 15.2732L23.3337 15.5583V21.2755C23.3337 24.6208 20.5776 27.3327 17.1781 27.3327H6.82257C3.42304 27.3327 0.666992 24.6208 0.666992 21.2755V15.5583C0.666992 12.9091 2.39551 10.657 4.80326 9.83461L4.80351 7.70295C4.82088 3.80046 8.05035 0.650663 12.0135 0.666072ZM17.1781 11.5011H6.82257C4.54586 11.5011 2.69988 13.3175 2.69988 15.5583V21.2755C2.69988 23.5163 4.54586 25.3327 6.82257 25.3327H17.1781C19.4548 25.3327 21.3008 23.5163 21.3008 21.2755V15.5583C21.3008 13.3175 19.4548 11.5011 17.1781 11.5011ZM12.0006 15.9359C12.5152 15.9359 12.9405 16.3121 13.0078 16.8002L13.017 16.9359V19.8985C13.017 20.4507 12.562 20.8985 12.0006 20.8985C11.486 20.8985 11.0607 20.5223 10.9934 20.0342L10.9842 19.8985V16.9359C10.9842 16.3836 11.4392 15.9359 12.0006 15.9359Z" fill="black"/>
</svg>
