<svg width="24" height="24" viewBox="0 0 24 24" fill="none" xmlns="http://www.w3.org/2000/svg">
<rect width="24" height="24" rx="4" fill="white"/>
<path d="M16.2393 19.1669H7.72593C6.71259 19.1669 5.78593 18.6536 5.25259 17.7869C4.71926 16.9203 4.67259 15.8669 5.12593 14.9536L6.27259 12.6536C6.64593 11.9069 7.24593 11.4403 7.91926 11.3669C8.59259 11.2936 9.27926 11.6269 9.79926 12.2736L9.94593 12.4603C10.2393 12.8203 10.5793 13.0136 10.9126 12.9803C11.2459 12.9536 11.5526 12.7136 11.7793 12.3069L13.0393 10.0336C13.5593 9.09361 14.2526 8.60694 15.0059 8.64028C15.7526 8.68028 16.3926 9.24028 16.8193 10.2269L18.9059 15.1003C19.2926 16.0003 19.1993 17.0269 18.6593 17.8469C18.1259 18.6803 17.2193 19.1669 16.2393 19.1669ZM8.10593 12.3669C8.07926 12.3669 8.05259 12.3669 8.02593 12.3736C7.69259 12.4069 7.38593 12.6736 7.16593 13.1069L6.01926 15.4069C5.71926 16.0003 5.75259 16.7003 6.09926 17.2669C6.44593 17.8336 7.05926 18.1736 7.72593 18.1736H16.2326C16.8859 18.1736 17.4659 17.8603 17.8259 17.3136C18.1859 16.7669 18.2459 16.1136 17.9859 15.5136L15.8993 10.6403C15.6459 10.0403 15.2926 9.67361 14.9526 9.66028C14.6393 9.64028 14.2326 9.97361 13.9126 10.5403L12.6526 12.8136C12.2659 13.5069 11.6593 13.9403 10.9993 14.0003C10.3393 14.0536 9.66593 13.7336 9.16593 13.1069L9.01926 12.9203C8.73926 12.5536 8.41926 12.3669 8.10593 12.3669Z" fill="#7E92A2"/>
<path d="M8.64648 9.83398C7.27315 9.83398 6.14648 8.71398 6.14648 7.33398C6.14648 5.95398 7.26648 4.83398 8.64648 4.83398C10.0265 4.83398 11.1465 5.95398 11.1465 7.33398C11.1465 8.71398 10.0265 9.83398 8.64648 9.83398ZM8.64648 5.83398C7.81982 5.83398 7.14648 6.50732 7.14648 7.33398C7.14648 8.16065 7.81982 8.83398 8.64648 8.83398C9.47315 8.83398 10.1465 8.16065 10.1465 7.33398C10.1465 6.50732 9.47315 5.83398 8.64648 5.83398Z" fill="#7E92A2"/>
</svg>
