<svg width="28" height="28" viewBox="0 0 28 28" fill="none" xmlns="http://www.w3.org/2000/svg">
<path fill-rule="evenodd" clip-rule="evenodd" d="M10 0C9.07174 0 8.1815 0.368749 7.52513 1.02513C6.86875 1.6815 6.5 2.57174 6.5 3.5V6H4C2.93913 6 1.92172 6.42143 1.17157 7.17157C0.421427 7.92172 0 8.93913 0 10V24C0 25.0609 0.421427 26.0783 1.17157 26.8284C1.92172 27.5786 2.93913 28 4 28H24C25.0609 28 26.0783 27.5786 26.8284 26.8284C27.5786 26.0783 28 25.0609 28 24V10C28 8.93913 27.5786 7.92172 26.8284 7.17157C26.0783 6.42143 25.0609 6 24 6H21.5V3.5C21.5 2.57174 21.1313 1.6815 20.4749 1.02513C19.8185 0.368749 18.9283 0 18 0H10ZM18.5 6V3.5C18.5 3.36739 18.4473 3.24021 18.3536 3.14645C18.2598 3.05268 18.1326 3 18 3H10C9.86739 3 9.74021 3.05268 9.64645 3.14645C9.55268 3.24021 9.5 3.36739 9.5 3.5V6H18.5ZM4 9H24C24.2652 9 24.5196 9.10536 24.7071 9.29289C24.8946 9.48043 25 9.73478 25 10V12H3V10C3 9.73478 3.10536 9.48043 3.29289 9.29289C3.48043 9.10536 3.73478 9 4 9ZM3 15V24C3 24.2652 3.10536 24.5196 3.29289 24.7071C3.48043 24.8946 3.73478 25 4 25H24C24.2652 25 24.5196 24.8946 24.7071 24.7071C24.8946 24.5196 25 24.2652 25 24V15H16V18H12V15H3Z" fill="black"/>
</svg>
