<svg width="25" height="25" viewBox="0 0 25 25" fill="none" xmlns="http://www.w3.org/2000/svg">
<path d="M18.0172 12.6199C18.0078 11.0215 18.732 9.8168 20.1945 8.92852C19.3766 7.75664 18.1391 7.11211 16.5078 6.98789C14.9633 6.86602 13.2734 7.88789 12.6547 7.88789C12.0008 7.88789 10.5055 7.03008 9.32891 7.03008C6.90078 7.06758 4.32031 8.96602 4.32031 12.8285C4.32031 13.9699 4.52891 15.1488 4.94609 16.3629C5.50391 17.9613 7.51484 21.8777 9.6125 21.8145C10.7094 21.7887 11.4852 21.0363 12.9125 21.0363C14.2977 21.0363 15.0148 21.8145 16.2383 21.8145C18.3547 21.784 20.1734 18.2238 20.7031 16.6207C17.8648 15.2824 18.0172 12.702 18.0172 12.6199ZM15.5539 5.47148C16.7422 4.06055 16.6344 2.77617 16.5992 2.31445C15.5492 2.37539 14.3352 3.0293 13.6437 3.8332C12.882 4.6957 12.4344 5.76211 12.5305 6.96445C13.6648 7.05117 14.7008 6.46758 15.5539 5.47148Z" fill="#313131"/>
</svg>
