<svg width="25" height="25" viewBox="0 0 25 25" fill="none" xmlns="http://www.w3.org/2000/svg">
<path d="M22.3055 10.106H21.5V10.0645H12.5V14.0645H18.1515C17.327 16.393 15.1115 18.0645 12.5 18.0645C9.1865 18.0645 6.5 15.378 6.5 12.0645C6.5 8.75095 9.1865 6.06445 12.5 6.06445C14.0295 6.06445 15.421 6.64145 16.4805 7.58395L19.309 4.75545C17.523 3.09095 15.134 2.06445 12.5 2.06445C6.9775 2.06445 2.5 6.54195 2.5 12.0645C2.5 17.587 6.9775 22.0645 12.5 22.0645C18.0225 22.0645 22.5 17.587 22.5 12.0645C22.5 11.394 22.431 10.7395 22.3055 10.106Z" fill="#FFC107"/>
<path d="M3.65332 7.40995L6.93882 9.81945C7.82782 7.61845 9.98082 6.06445 12.5003 6.06445C14.0298 6.06445 15.4213 6.64145 16.4808 7.58395L19.3093 4.75545C17.5233 3.09095 15.1343 2.06445 12.5003 2.06445C8.65932 2.06445 5.32832 4.23295 3.65332 7.40995Z" fill="#FF3D00"/>
<path d="M12.5002 22.0643C15.0832 22.0643 17.4302 21.0758 19.2047 19.4683L16.1097 16.8493C15.0719 17.6385 13.8039 18.0653 12.5002 18.0643C9.89916 18.0643 7.69066 16.4058 6.85866 14.0913L3.59766 16.6038C5.25266 19.8423 8.61366 22.0643 12.5002 22.0643Z" fill="#4CAF50"/>
<path d="M22.3055 10.106H21.5V10.0645H12.5V14.0645H18.1515C17.7571 15.1727 17.0467 16.141 16.108 16.85L16.1095 16.849L19.2045 19.468C18.9855 19.667 22.5 17.0645 22.5 12.0645C22.5 11.394 22.431 10.7395 22.3055 10.106Z" fill="#1976D2"/>
</svg>
