<svg width="33" height="33" viewBox="0 0 33 33" fill="none" xmlns="http://www.w3.org/2000/svg">
<g clip-path="url(#clip0_59_69841)">
<path fill-rule="evenodd" clip-rule="evenodd" d="M0.5 16.3633C0.5 12.1198 2.18571 8.05016 5.18629 5.04957C8.18687 2.04899 12.2565 0.363281 16.5 0.363281C20.7435 0.363281 24.8131 2.04899 27.8137 5.04957C30.8143 8.05016 32.5 12.1198 32.5 16.3633C32.5 20.6067 30.8143 24.6764 27.8137 27.677C24.8131 30.6776 20.7435 32.3633 16.5 32.3633C12.2565 32.3633 8.18687 30.6776 5.18629 27.677C2.18571 24.6764 0.5 20.6067 0.5 16.3633ZM15.5869 23.2113L24.7987 11.6955L23.1347 10.3643L15.2797 20.1798L9.716 15.5441L8.35067 17.1825L15.5869 23.2113Z" fill="#008000"/>
</g>
<defs>
<clipPath id="clip0_59_69841">
<rect width="32" height="32" fill="white" transform="translate(0.5 0.363281)"/>
</clipPath>
</defs>
</svg>
