<svg width="21" height="26" viewBox="0 0 21 26" fill="none" xmlns="http://www.w3.org/2000/svg">
<path d="M0.474609 22.1553V19.6553H2.97461V10.9053C2.97461 9.17611 3.49544 7.64486 4.53711 6.31152C5.57878 4.95736 6.93294 4.07194 8.59961 3.65527V2.78027C8.59961 2.25944 8.77669 1.82194 9.13086 1.46777C9.50586 1.09277 9.95378 0.905273 10.4746 0.905273C10.9954 0.905273 11.4329 1.09277 11.7871 1.46777C12.1621 1.82194 12.3496 2.25944 12.3496 2.78027V3.65527C14.0163 4.07194 15.3704 4.95736 16.4121 6.31152C17.4538 7.64486 17.9746 9.17611 17.9746 10.9053V19.6553H20.4746V22.1553H0.474609ZM10.4746 25.9053C9.78711 25.9053 9.19336 25.6657 8.69336 25.1865C8.21419 24.6865 7.97461 24.0928 7.97461 23.4053H12.9746C12.9746 24.0928 12.7246 24.6865 12.2246 25.1865C11.7454 25.6657 11.1621 25.9053 10.4746 25.9053ZM5.47461 19.6553H15.4746V10.9053C15.4746 9.53027 14.985 8.35319 14.0059 7.37402C13.0267 6.39486 11.8496 5.90527 10.4746 5.90527C9.09961 5.90527 7.92253 6.39486 6.94336 7.37402C5.96419 8.35319 5.47461 9.53027 5.47461 10.9053V19.6553Z" fill="black"/>
</svg>
