<svg width="28" height="22" viewBox="0 0 28 22" fill="none" xmlns="http://www.w3.org/2000/svg">
<path d="M4.66699 6.20033V3.33366C4.66699 1.86699 5.86699 0.666992 7.33366 0.666992H20.667C22.1337 0.666992 23.3337 1.86699 23.3337 3.33366V6.21366C21.787 6.76033 20.667 8.22699 20.667 9.96033V12.667H7.33366V9.94699C7.33366 8.22699 6.21366 6.74699 4.66699 6.20033ZM24.667 7.33366C23.2003 7.33366 22.0003 8.53366 22.0003 10.0003V14.0003H6.00033V10.0003C6.00033 9.29308 5.71937 8.61481 5.21928 8.11471C4.71918 7.61461 4.0409 7.33366 3.33366 7.33366C2.62641 7.33366 1.94814 7.61461 1.44804 8.11471C0.947944 8.61481 0.666992 9.29308 0.666992 10.0003V16.667C0.666992 18.1337 1.86699 19.3337 3.33366 19.3337V22.0003H6.00033V19.3337H22.0003V22.0003H24.667V19.3337C26.1337 19.3337 27.3337 18.1337 27.3337 16.667V10.0003C27.3337 8.53366 26.1337 7.33366 24.667 7.33366Z" fill="black"/>
</svg>
