<svg width="139" height="25" viewBox="0 0 139 25" fill="none" xmlns="http://www.w3.org/2000/svg">
<path d="M24.3712 1.56735H23.0567H18H16.0617L14.6372 2.82994L7.60293 9.06476H1.71294V2.82994H6.15051C6.40772 3.47599 7.0578 3.93631 7.8202 3.93631C8.80719 3.93631 9.60901 3.16617 9.60901 2.21816C9.60901 1.27015 8.80719 0.5 7.8202 0.5C7.07306 0.5 6.43283 0.941644 6.16538 1.56735H1.71294H0.398438V2.82994V9.06476V10.3274H1.71294H6.17844H8.11676L9.54124 9.06476L16.5755 2.82994H22.974H23.0567V4.47462V9.06476H17.878H15.9397L14.5152 10.3274L9.07562 15.1488L7.76111 16.3139V18.0319V23.2374V24.5H9.07562H15.5755H16.89V23.2374V18.572C17.5313 18.3107 17.9817 17.7001 17.9817 16.9896C17.9817 16.0416 17.1799 15.2714 16.1929 15.2714C15.206 15.2714 14.4041 16.0416 14.4041 16.9896C14.4041 17.7289 14.8927 18.3581 15.5755 18.6002V23.2374H9.07562V16.8668L16.4536 10.3274H23.0567H24.3712V9.06476V3.30951V2.82994V1.5915L24.3984 1.56735H24.3712ZM7.82024 1.20288C8.40297 1.20288 8.87727 1.65845 8.87727 2.21816C8.87727 2.77787 8.40297 3.23343 7.82024 3.23343C7.23751 3.23343 6.76321 2.77787 6.76321 2.21816C6.76321 1.65845 7.23751 1.20288 7.82024 1.20288ZM15.136 16.9895C15.136 16.4298 15.6103 15.9743 16.193 15.9743C16.7757 15.9743 17.25 16.4298 17.25 16.9895C17.25 17.5492 16.7757 18.0048 16.193 18.0048C15.6103 18.0048 15.136 17.5492 15.136 16.9895Z" fill="url(#paint0_linear_63_27339)"/>
<path d="M48.5701 3.46826V6.99352H43.7839V21.532H39.3838V6.99352H34.5977V3.46826H48.5701ZM62.0491 21.532L58.2922 14.7131H57.2372V21.532H52.837V3.46826H60.2221C61.6457 3.46826 62.8551 3.71656 63.8503 4.21447C64.8622 4.71174 65.6168 5.39814 66.1147 6.27303C66.612 7.13054 66.8609 8.09099 66.8609 9.155C66.8609 10.3554 66.5174 11.4278 65.8316 12.3715C65.1626 13.3146 64.1674 13.9836 62.8467 14.3786L67.0153 21.532H62.0491ZM57.2372 11.5995H59.9648C60.7708 11.5995 61.371 11.402 61.766 11.0077C62.1777 10.6127 62.3836 10.0556 62.3836 9.33513C62.3836 8.64873 62.1777 8.10835 61.766 7.714C61.371 7.31902 60.7708 7.12218 59.9648 7.12218H57.2372V11.5995ZM76.0819 3.46826V21.532H71.6818V3.46826H76.0819ZM92.5735 18.3413H85.8317L84.751 21.532H80.145L86.6809 3.46826H91.7758L98.3117 21.532H93.6542L92.5735 18.3413ZM91.4413 14.9447L89.2026 8.33158L86.9897 14.9447H91.4413ZM113.425 21.532L109.745 15.9997L106.503 21.532H101.511L107.3 12.3457L101.382 3.46826H106.503L110.131 8.92341L113.322 3.46826H118.314L112.576 12.5773L118.545 21.532H113.425ZM133.877 21.532L130.197 15.9997L126.955 21.532H121.963L127.753 12.3457L121.834 3.46826H126.955L130.583 8.92341L133.774 3.46826H138.766L133.028 12.5773L138.998 21.532H133.877Z" fill="url(#paint1_linear_63_27339)"/>
<defs>
<linearGradient id="paint0_linear_63_27339" x1="12.5694" y1="0.0982588" x2="11.9807" y2="20.3227" gradientUnits="userSpaceOnUse">
<stop stop-color="#F0389B"/>
<stop offset="1" stop-color="#6409C0"/>
</linearGradient>
<linearGradient id="paint1_linear_63_27339" x1="86.7977" y1="3.46826" x2="86.7977" y2="21.532" gradientUnits="userSpaceOnUse">
<stop stop-color="#F0389B"/>
<stop offset="1" stop-color="#6409C0"/>
</linearGradient>
</defs>
</svg>
