<svg width="21" height="22" viewBox="0 0 21 22" fill="none" xmlns="http://www.w3.org/2000/svg">
<rect x="1" y="1.16699" width="19" height="20.3333" rx="3.5" stroke="black"/>
<path d="M15.086 9.1462L15.1523 9.14711C15.3983 9.16745 15.5869 9.37176 15.6 9.61769L15.5937 9.75482L15.384 12.3223L15.1641 14.8279C15.1175 15.3281 15.0759 15.75 15.0399 16.0821C14.915 17.2395 14.1637 17.9552 13.0311 17.9764C11.2662 18.009 9.56985 18.0087 7.92248 17.973C6.82265 17.95 6.08244 17.2265 5.9597 16.0868L5.87487 15.2471L5.72663 13.6183L5.57477 11.831L5.40115 9.68558C5.37957 9.41031 5.57967 9.16923 5.8481 9.1471C6.09415 9.12681 6.3122 9.29755 6.36346 9.53817L6.38341 9.73481L6.54644 11.7461L6.72446 13.8309C6.80431 14.7334 6.87356 15.4638 6.92897 15.9769C6.99892 16.6263 7.34092 16.9606 7.94274 16.9732C9.57723 17.0086 11.261 17.0089 13.0134 16.9765C13.6518 16.9646 13.9992 16.6336 14.0707 15.9719L14.1551 15.1367C14.1799 14.8793 14.2063 14.5952 14.2342 14.2865L14.4124 12.2362L14.6271 9.60533C14.6469 9.353 14.8461 9.15959 15.086 9.1462ZM4.98759 7.99311C4.7183 7.99311 4.5 7.76925 4.5 7.4931C4.5 7.23996 4.68344 7.03075 4.92143 6.99764L4.98759 6.99308H7.11181C7.36424 6.99308 7.58523 6.82651 7.66428 6.58652L7.68362 6.51241L7.8487 5.67054C7.99408 5.11297 8.46613 4.71599 9.01933 4.67121L9.12395 4.66699H11.8759C12.4383 4.66699 12.9349 5.03118 13.1261 5.59392L13.1583 5.70172L13.3162 6.51221C13.3658 6.76614 13.5683 6.95579 13.8134 6.98817L13.8881 6.99308H16.0124C16.2817 6.99308 16.5 7.21694 16.5 7.4931C16.5 7.74624 16.3166 7.95544 16.0786 7.98855L16.0124 7.99311H4.98759ZM11.8759 5.66703H9.12395C8.98714 5.66703 8.86553 5.74914 8.81501 5.85234L8.79788 5.89768L8.63986 6.70858C8.62054 6.80755 8.59253 6.90286 8.55675 6.99374L12.4432 6.99386C12.4209 6.93717 12.4016 6.87874 12.3855 6.81878L12.36 6.70838L12.2091 5.92886C12.1738 5.7936 12.0649 5.69458 11.9335 5.67194L11.8759 5.66703Z" fill="black"/>
</svg>
