<svg width="416" height="73" viewBox="0 0 416 73" fill="none" xmlns="http://www.w3.org/2000/svg">
<path d="M71.953 3.2036H68.0076H52.83H47.0123L42.7368 6.99318L21.6239 25.7066H3.94542V6.99318H17.2645C18.0365 8.93227 19.9877 10.3139 22.276 10.3139C25.2384 10.3139 27.645 8.00235 27.645 5.15695C27.645 2.31155 25.2384 0 22.276 0C20.0335 0 18.1119 1.32557 17.3092 3.2036H3.94542H0V6.99318V25.7066V29.4962H3.94542H17.3484H23.1661L27.4416 25.7066L48.5545 6.99318H67.7592H68.0075V11.9296V25.7066H52.464H46.6463L42.3708 29.4962L26.0441 43.9675L22.0987 47.4645V52.6211V68.2451V72.0346H26.0441H45.553H49.4984V68.2451V54.2422C51.4232 53.4579 52.7753 51.6252 52.7753 49.4925C52.7753 46.6471 50.3687 44.3356 47.4063 44.3356C44.4439 44.3356 42.0373 46.6471 42.0373 49.4925C42.0373 51.7115 43.5036 53.6001 45.553 54.3266V68.2451H26.0441V49.1241L48.1885 29.4962H68.0075H71.9529V25.7066V8.43258V6.99318V3.27609L72.0346 3.2036H71.953ZM22.2761 2.10965C24.0251 2.10965 25.4487 3.47701 25.4487 5.15695C25.4487 6.83689 24.0251 8.20424 22.2761 8.20424C20.5271 8.20424 19.1035 6.83689 19.1035 5.15695C19.1035 3.47701 20.5271 2.10965 22.2761 2.10965ZM44.2338 49.4924C44.2338 47.8125 45.6574 46.4451 47.4064 46.4451C49.1554 46.4451 50.579 47.8125 50.579 49.4924C50.579 51.1723 49.1554 52.5397 47.4064 52.5397C45.6574 52.5397 44.2338 51.1723 44.2338 49.4924Z" fill="url(#paint0_linear_59_18084)" fill-opacity="0.3"/>
<path d="M144.587 8.90869V19.4895H130.222V63.1261H117.015V19.4895H102.649V8.90869H144.587ZM185.043 63.1261L173.767 42.6594H170.601V63.1261H157.394V8.90869H179.56C183.833 8.90869 187.463 9.65394 190.45 11.1484C193.487 12.6409 195.752 14.7011 197.246 17.327C198.739 19.9008 199.486 22.7835 199.486 25.9771C199.486 29.58 198.455 32.7987 196.396 35.6312C194.388 38.4618 191.401 40.4698 187.437 41.6554L199.949 63.1261H185.043ZM170.601 33.3142H178.787C181.207 33.3142 183.008 32.7214 184.194 31.5378C185.429 30.3523 186.047 28.6803 186.047 26.5177C186.047 24.4576 185.429 22.8356 184.194 21.652C183.008 20.4665 181.207 19.8757 178.787 19.8757H170.601V33.3142ZM227.162 8.90869V63.1261H213.955V8.90869H227.162ZM276.661 53.5492H256.426L253.182 63.1261H239.357L258.974 8.90869H274.266L293.883 63.1261H279.904L276.661 53.5492ZM273.262 43.3545L266.543 23.5057L259.901 43.3545H273.262ZM339.244 63.1261L328.2 46.521L318.469 63.1261H303.485L320.863 35.554L303.099 8.90869H318.469L329.358 25.282L338.935 8.90869H353.918L336.695 36.249L354.613 63.1261H339.244ZM400.631 63.1261L389.586 46.521L379.855 63.1261H364.872L382.249 35.554L364.486 8.90869H379.855L390.745 25.282L400.322 8.90869H415.305L398.082 36.249L416 63.1261H400.631Z" fill="url(#paint1_linear_59_18084)" fill-opacity="0.3"/>
<defs>
<linearGradient id="paint0_linear_59_18084" x1="36.0173" y1="0" x2="36.0173" y2="72.0346" gradientUnits="userSpaceOnUse">
<stop stop-color="#6A1B9A"/>
<stop offset="1" stop-color="#D32F2F"/>
</linearGradient>
<linearGradient id="paint1_linear_59_18084" x1="259.325" y1="8.90869" x2="259.325" y2="63.1261" gradientUnits="userSpaceOnUse">
<stop stop-color="#6A1B9A"/>
<stop offset="1" stop-color="#D32F2F"/>
</linearGradient>
</defs>
</svg>
