<svg width="139" height="24" viewBox="0 0 139 24" fill="none" xmlns="http://www.w3.org/2000/svg">
<path d="M24.172 1.06735H22.8575H17.8008H15.8625L14.438 2.32994L7.40371 8.56476H1.51373V2.32994H5.95129C6.2085 2.97599 6.85858 3.43631 7.62098 3.43631C8.60798 3.43631 9.40979 2.66617 9.40979 1.71816C9.40979 0.770146 8.60798 0 7.62098 0C6.87384 0 6.23361 0.441644 5.96616 1.06735H1.51373H0.199219V2.32994V8.56476V9.82735H1.51373H5.97922H7.91754L9.34202 8.56476L16.3763 2.32994H22.7748H22.8575V3.97462V8.56476H17.6788H15.7405L14.316 9.82735L8.8764 14.6488L7.5619 15.8139V17.5319V22.7374V24H8.8764H15.3763H16.6908V22.7374V18.072C17.3321 17.8107 17.7825 17.2001 17.7825 16.4896C17.7825 15.5416 16.9807 14.7714 15.9937 14.7714C15.0067 14.7714 14.2049 15.5416 14.2049 16.4896C14.2049 17.2289 14.6934 17.8581 15.3763 18.1002V22.7374H8.8764V16.3668L16.2543 9.82735H22.8575H24.172V8.56476V2.80951V2.32994V1.0915L24.1992 1.06735H24.172ZM7.62102 0.702878C8.20375 0.702878 8.67805 1.15845 8.67805 1.71816C8.67805 2.27787 8.20375 2.73343 7.62102 2.73343C7.03829 2.73343 6.56399 2.27787 6.56399 1.71816C6.56399 1.15845 7.03829 0.702878 7.62102 0.702878ZM14.9367 16.4895C14.9367 15.9298 15.411 15.4743 15.9938 15.4743C16.5765 15.4743 17.0508 15.9298 17.0508 16.4895C17.0508 17.0492 16.5765 17.5048 15.9938 17.5048C15.411 17.5048 14.9367 17.0492 14.9367 16.4895Z" fill="url(#paint0_linear_63_27736)"/>
<path d="M48.3708 2.96826V6.49352H43.5847V21.032H39.1846V6.49352H34.3984V2.96826H48.3708ZM61.8498 21.032L58.093 14.2131H57.038V21.032H52.6378V2.96826H60.0229C61.4465 2.96826 62.6559 3.21656 63.6511 3.71447C64.663 4.21174 65.4176 4.89814 65.9155 5.77303C66.4127 6.63054 66.6617 7.59099 66.6617 8.655C66.6617 9.8554 66.3182 10.9278 65.6324 11.8715C64.9634 12.8146 63.9682 13.4836 62.6475 13.8786L66.8161 21.032H61.8498ZM57.038 11.0995H59.7656C60.5716 11.0995 61.1718 10.902 61.5668 10.5077C61.9785 10.1127 62.1844 9.55562 62.1844 8.83513C62.1844 8.14873 61.9785 7.60835 61.5668 7.214C61.1718 6.81902 60.5716 6.62218 59.7656 6.62218H57.038V11.0995ZM75.8827 2.96826V21.032H71.4826V2.96826H75.8827ZM92.3743 17.8413H85.6325L84.5518 21.032H79.9458L86.4817 2.96826H91.5766L98.1125 21.032H93.455L92.3743 17.8413ZM91.2421 14.4447L89.0034 7.83158L86.7905 14.4447H91.2421ZM113.225 21.032L109.546 15.4997L106.304 21.032H101.312L107.101 11.8457L101.183 2.96826H106.304L109.932 8.42341L113.123 2.96826H118.115L112.376 12.0773L118.346 21.032H113.225ZM133.678 21.032L129.998 15.4997L126.756 21.032H121.764L127.554 11.8457L121.635 2.96826H126.756L130.384 8.42341L133.575 2.96826H138.567L132.829 12.0773L138.798 21.032H133.678Z" fill="url(#paint1_linear_63_27736)"/>
<defs>
<linearGradient id="paint0_linear_63_27736" x1="12.3702" y1="-0.401741" x2="11.7815" y2="19.8227" gradientUnits="userSpaceOnUse">
<stop stop-color="#F0389B"/>
<stop offset="1" stop-color="#6409C0"/>
</linearGradient>
<linearGradient id="paint1_linear_63_27736" x1="86.5984" y1="2.96826" x2="86.5984" y2="21.032" gradientUnits="userSpaceOnUse">
<stop stop-color="#F0389B"/>
<stop offset="1" stop-color="#6409C0"/>
</linearGradient>
</defs>
</svg>
