<svg width="22" height="22" viewBox="0 0 22 22" fill="none" xmlns="http://www.w3.org/2000/svg">
<path d="M10.9997 10.9997C9.53301 10.9997 8.27745 10.4775 7.23301 9.43301C6.18856 8.38856 5.66634 7.13301 5.66634 5.66634C5.66634 4.19967 6.18856 2.94412 7.23301 1.89967C8.27745 0.85523 9.53301 0.333008 10.9997 0.333008C12.4663 0.333008 13.7219 0.85523 14.7663 1.89967C15.8108 2.94412 16.333 4.19967 16.333 5.66634C16.333 7.13301 15.8108 8.38856 14.7663 9.43301C13.7219 10.4775 12.4663 10.9997 10.9997 10.9997ZM0.333008 21.6663V17.933C0.333008 17.1775 0.527452 16.483 0.916341 15.8497C1.30523 15.2163 1.8219 14.733 2.46634 14.3997C3.84412 13.7108 5.24412 13.1941 6.66634 12.8497C8.08856 12.5052 9.53301 12.333 10.9997 12.333C12.4663 12.333 13.9108 12.5052 15.333 12.8497C16.7552 13.1941 18.1552 13.7108 19.533 14.3997C20.1775 14.733 20.6941 15.2163 21.083 15.8497C21.4719 16.483 21.6663 17.1775 21.6663 17.933V21.6663H0.333008ZM2.99967 18.9997H18.9997V17.933C18.9997 17.6886 18.9386 17.4663 18.8163 17.2663C18.6941 17.0663 18.533 16.9108 18.333 16.7997C17.133 16.1997 15.9219 15.7497 14.6997 15.4497C13.4775 15.1497 12.2441 14.9997 10.9997 14.9997C9.75523 14.9997 8.5219 15.1497 7.29967 15.4497C6.07745 15.7497 4.86634 16.1997 3.66634 16.7997C3.46634 16.9108 3.30523 17.0663 3.18301 17.2663C3.06079 17.4663 2.99967 17.6886 2.99967 17.933V18.9997ZM10.9997 8.33301C11.733 8.33301 12.3608 8.0719 12.883 7.54967C13.4052 7.02745 13.6663 6.39967 13.6663 5.66634C13.6663 4.93301 13.4052 4.30523 12.883 3.78301C12.3608 3.26079 11.733 2.99967 10.9997 2.99967C10.2663 2.99967 9.63856 3.26079 9.11634 3.78301C8.59412 4.30523 8.33301 4.93301 8.33301 5.66634C8.33301 6.39967 8.59412 7.02745 9.11634 7.54967C9.63856 8.0719 10.2663 8.33301 10.9997 8.33301Z" fill="#1D1B20"/>
</svg>
