<svg width="30" height="30" viewBox="0 0 30 30" fill="none" xmlns="http://www.w3.org/2000/svg">
<path d="M15.0013 1.66602C7.6373 1.66602 1.66797 7.63535 1.66797 14.9993C1.66797 22.3633 7.6373 28.3327 15.0013 28.3327C22.3653 28.3327 28.3346 22.3633 28.3346 14.9993C28.3346 7.63535 22.3653 1.66602 15.0013 1.66602Z" stroke="white" stroke-width="2" stroke-linecap="round" stroke-linejoin="round"/>
<path d="M4.69531 23.4613C4.69531 23.4613 7.66731 19.6667 15.0006 19.6667C22.334 19.6667 25.3073 23.4613 25.3073 23.4613M15.0006 15C16.0615 15 17.0789 14.5786 17.8291 13.8284C18.5792 13.0783 19.0006 12.0609 19.0006 11C19.0006 9.93913 18.5792 8.92172 17.8291 8.17157C17.0789 7.42143 16.0615 7 15.0006 7C13.9398 7 12.9224 7.42143 12.1722 8.17157C11.4221 8.92172 11.0006 9.93913 11.0006 11C11.0006 12.0609 11.4221 13.0783 12.1722 13.8284C12.9224 14.5786 13.9398 15 15.0006 15Z" stroke="white" stroke-width="2" stroke-linecap="round" stroke-linejoin="round"/>
</svg>
