<svg width="18" height="18" viewBox="0 0 18 18" fill="none" xmlns="http://www.w3.org/2000/svg">
<path d="M8.9984 15.4165C8.6987 15.4165 8.45102 15.1971 8.41182 14.9123L8.40641 14.8332L8.40672 4.57875L4.66274 8.28349C4.43206 8.51179 4.05723 8.51258 3.82555 8.28527C3.61493 8.07862 3.59511 7.75459 3.76657 7.52586L3.82375 7.46031L8.57859 2.75476L8.59106 2.74323C8.60384 2.73128 8.61716 2.71988 8.63099 2.70909L8.57859 2.75476C8.6015 2.73209 8.62582 2.71166 8.65129 2.69348C8.66729 2.68249 8.6839 2.67182 8.70106 2.66198C8.73925 2.63975 8.77921 2.62252 8.82029 2.60982C8.83477 2.60554 8.84957 2.60156 8.86458 2.59814C8.87603 2.59536 8.88768 2.59307 8.89937 2.59113C8.91204 2.5892 8.92472 2.58751 8.93752 2.58622C8.95036 2.58476 8.96349 2.58386 8.97664 2.58339C8.98392 2.5833 8.99115 2.58317 8.9984 2.58317L9.01806 2.58334C9.03264 2.58383 9.0472 2.58484 9.06172 2.58637L8.9984 2.58317C9.03221 2.58317 9.06535 2.58596 9.09761 2.59133C9.1123 2.59372 9.12706 2.59676 9.14171 2.60035C9.15335 2.60323 9.16478 2.6064 9.17606 2.60989C9.18946 2.61402 9.20297 2.61873 9.21632 2.62394C9.23011 2.62935 9.24358 2.6352 9.25678 2.64152C9.26688 2.6463 9.27729 2.65166 9.28758 2.65735C9.30686 2.66807 9.32496 2.67942 9.34235 2.69168C9.34508 2.6936 9.34808 2.69577 9.35107 2.69796C9.37749 2.71741 9.4008 2.73758 9.42239 2.7594L14.1732 7.46028C14.4039 7.68856 14.4031 8.0579 14.1714 8.28524C13.9608 8.4919 13.6319 8.51006 13.4005 8.34014L13.3343 8.28353L9.59095 4.57947L9.59039 14.8332C9.59039 15.1553 9.32535 15.4165 8.9984 15.4165Z" fill="#008000"/>
</svg>
