<svg width="21" height="22" viewBox="0 0 21 22" fill="none" xmlns="http://www.w3.org/2000/svg">
<path fill-rule="evenodd" clip-rule="evenodd" d="M15.551 20.1335C14.111 20.0805 10.03 19.5165 5.75602 15.2435C1.48302 10.9695 0.920023 6.88946 0.866023 5.44846C0.786023 3.25246 2.46802 1.11946 4.41102 0.28646C4.645 0.185427 4.90122 0.14696 5.15455 0.174835C5.40788 0.20271 5.64961 0.295969 5.85602 0.44546C7.45602 1.61146 8.56002 3.37546 9.50802 4.76246C9.71661 5.06719 9.80579 5.43801 9.75858 5.80426C9.71137 6.17051 9.53107 6.50659 9.25202 6.74846L7.30102 8.19746C7.20677 8.26552 7.14042 8.36549 7.1143 8.47878C7.08818 8.59208 7.10407 8.711 7.15902 8.81346C7.60102 9.61646 8.38702 10.8125 9.28702 11.7125C10.187 12.6125 11.44 13.4505 12.299 13.9425C12.4067 14.0029 12.5335 14.0198 12.6533 13.9897C12.7731 13.9596 12.8767 13.8847 12.943 13.7805L14.213 11.8475C14.4465 11.5373 14.7909 11.3295 15.1742 11.2676C15.5575 11.2058 15.9498 11.2946 16.269 11.5155C17.676 12.4895 19.318 13.5745 20.52 15.1135C20.6817 15.3214 20.7845 15.5689 20.8177 15.8301C20.851 16.0913 20.8134 16.3567 20.709 16.5985C19.872 18.5515 17.754 20.2145 15.551 20.1335Z" fill="url(#paint0_linear_150_33987)"/>
<defs>
<linearGradient id="paint0_linear_150_33987" x1="10.8464" y1="0.166016" x2="10.8464" y2="20.1363" gradientUnits="userSpaceOnUse">
<stop stop-color="#6A1B9A"/>
<stop offset="1" stop-color="#D32F2F"/>
</linearGradient>
</defs>
</svg>
