<svg width="24" height="24" viewBox="0 0 24 24" fill="none" xmlns="http://www.w3.org/2000/svg">
<path d="M3 3H21V7.385H19V5H5V14H9.333V16H3V3Z" fill="url(#paint0_linear_182_19902)"/>
<path d="M12.684 10.287C13.558 11.212 14.303 12 16 12H18C18.5304 12 19.0391 12.2107 19.4142 12.5858C19.7893 12.9609 20 13.4696 20 14V15C20 15.3511 19.9075 15.6959 19.732 16C19.5565 16.304 19.304 16.5565 19 16.732V22H16V14C13.383 14 12.044 12.55 11.16 11.595C11.0401 11.4633 10.9178 11.334 10.793 11.207L12.207 9.793C12.373 9.95967 12.532 10.1243 12.684 10.287ZM19 9.5C19 9.89782 18.8419 10.2794 18.5606 10.5607C18.2793 10.842 17.8978 11 17.5 11C17.1021 11 16.7206 10.842 16.4393 10.5607C16.158 10.2794 16 9.89782 16 9.5C16 9.10218 16.158 8.72064 16.4393 8.43934C16.7206 8.15804 17.1021 8 17.5 8C17.8978 8 18.2793 8.15804 18.5606 8.43934C18.8419 8.72064 19 9.10218 19 9.5Z" fill="url(#paint1_linear_182_19902)"/>
<defs>
<linearGradient id="paint0_linear_182_19902" x1="12" y1="3" x2="12" y2="16" gradientUnits="userSpaceOnUse">
<stop stop-color="#6A1B9A"/>
<stop offset="1" stop-color="#D32F2F"/>
</linearGradient>
<linearGradient id="paint1_linear_182_19902" x1="15.3965" y1="8" x2="15.3965" y2="22" gradientUnits="userSpaceOnUse">
<stop stop-color="#6A1B9A"/>
<stop offset="1" stop-color="#D32F2F"/>
</linearGradient>
</defs>
</svg>
