<svg width="32" height="32" viewBox="0 0 32 32" fill="none" xmlns="http://www.w3.org/2000/svg">
<path d="M25.7853 19.3193L24.452 17.106C24.172 16.6127 23.9186 15.6793 23.9186 15.1327V11.7593C23.9186 8.62602 22.0786 5.91935 19.4253 4.65268C18.732 3.42602 17.452 2.66602 15.9853 2.66602C14.532 2.66602 13.2253 3.45268 12.532 4.69268C9.93195 5.98602 8.13196 8.66602 8.13196 11.7593V15.1327C8.13196 15.6793 7.87862 16.6127 7.59862 17.0927L6.25196 19.3193C5.71862 20.2127 5.59862 21.1993 5.93195 22.106C6.25195 22.9993 7.01196 23.6927 7.99862 24.026C10.5853 24.906 13.3053 25.3327 16.0253 25.3327C18.7453 25.3327 21.4653 24.906 24.052 24.0393C24.9853 23.7327 25.7053 23.026 26.052 22.106C26.3986 21.186 26.3053 20.1727 25.7853 19.3193Z" fill="white"/>
<path d="M19.7716 26.6793C19.2116 28.226 17.7316 29.3327 15.9983 29.3327C14.9449 29.3327 13.9049 28.906 13.1716 28.146C12.7449 27.746 12.4249 27.2127 12.2383 26.666C12.4116 26.6927 12.5849 26.706 12.7716 26.7327C13.0783 26.7727 13.3983 26.8127 13.7183 26.8393C14.4783 26.906 15.2516 26.946 16.0249 26.946C16.7849 26.946 17.5449 26.906 18.2916 26.8393C18.5716 26.8127 18.8516 26.7993 19.1183 26.7593C19.3316 26.7327 19.5449 26.706 19.7716 26.6793Z" fill="white"/>
</svg>
