<svg width="20" height="20" viewBox="0 0 20 20" fill="none" xmlns="http://www.w3.org/2000/svg">
<path d="M16.1182 12.0743L15.2849 10.691C15.1099 10.3827 14.9516 9.79935 14.9516 9.45768V7.34935C14.9516 5.39102 13.8016 3.69935 12.1432 2.90768C11.7099 2.14102 10.9099 1.66602 9.99325 1.66602C9.08491 1.66602 8.26825 2.15768 7.83491 2.93268C6.20991 3.74102 5.08491 5.41602 5.08491 7.34935V9.45768C5.08491 9.79935 4.92658 10.3827 4.75158 10.6827L3.90991 12.0743C3.57658 12.6327 3.50158 13.2493 3.70991 13.816C3.90991 14.3743 4.38491 14.8077 5.00158 15.016C6.61825 15.566 8.31825 15.8327 10.0182 15.8327C11.7182 15.8327 13.4182 15.566 15.0349 15.0243C15.6182 14.8327 16.0682 14.391 16.2849 13.816C16.5016 13.241 16.4432 12.6077 16.1182 12.0743Z" fill="url(#paint0_linear_156_41838)"/>
<path d="M12.3568 16.6743C12.0068 17.641 11.0818 18.3327 9.99844 18.3327C9.3401 18.3327 8.6901 18.066 8.23177 17.591C7.9651 17.341 7.7651 17.0077 7.64844 16.666C7.75677 16.6827 7.8651 16.691 7.98177 16.7077C8.17344 16.7327 8.37344 16.7577 8.57344 16.7743C9.04844 16.816 9.53177 16.841 10.0151 16.841C10.4901 16.841 10.9651 16.816 11.4318 16.7743C11.6068 16.7577 11.7818 16.7493 11.9484 16.7243C12.0818 16.7077 12.2151 16.691 12.3568 16.6743Z" fill="url(#paint1_linear_156_41838)"/>
<defs>
<linearGradient id="paint0_linear_156_41838" x1="10.0036" y1="1.66602" x2="10.0036" y2="15.8327" gradientUnits="userSpaceOnUse">
<stop stop-color="#6A1B9A"/>
<stop offset="1" stop-color="#D32F2F"/>
</linearGradient>
<linearGradient id="paint1_linear_156_41838" x1="10.0026" y1="16.666" x2="10.0026" y2="18.3327" gradientUnits="userSpaceOnUse">
<stop stop-color="#6A1B9A"/>
<stop offset="1" stop-color="#D32F2F"/>
</linearGradient>
</defs>
</svg>
