<svg width="20" height="20" viewBox="0 0 20 20" fill="none" xmlns="http://www.w3.org/2000/svg">
<path fill-rule="evenodd" clip-rule="evenodd" d="M7.14286 0C6.47982 0 5.84393 0.263392 5.37509 0.732233C4.90625 1.20107 4.64286 1.83696 4.64286 2.5V4.28571H2.85714C2.09938 4.28571 1.37266 4.58673 0.836838 5.12255C0.30102 5.65837 0 6.3851 0 7.14286V17.1429C0 17.9006 0.30102 18.6273 0.836838 19.1632C1.37266 19.699 2.09938 20 2.85714 20H17.1429C17.9006 20 18.6273 19.699 19.1632 19.1632C19.699 18.6273 20 17.9006 20 17.1429V7.14286C20 6.3851 19.699 5.65837 19.1632 5.12255C18.6273 4.58673 17.9006 4.28571 17.1429 4.28571H15.3571V2.5C15.3571 1.83696 15.0938 1.20107 14.6249 0.732233C14.1561 0.263392 13.5202 0 12.8571 0H7.14286ZM13.2143 4.28571V2.5C13.2143 2.40528 13.1767 2.31444 13.1097 2.24746C13.0427 2.18048 12.9519 2.14286 12.8571 2.14286H7.14286C7.04814 2.14286 6.9573 2.18048 6.89032 2.24746C6.82334 2.31444 6.78571 2.40528 6.78571 2.5V4.28571H13.2143ZM2.85714 6.42857H17.1429C17.3323 6.42857 17.514 6.50383 17.6479 6.63778C17.7819 6.77174 17.8571 6.95342 17.8571 7.14286V8.57143H2.14286V7.14286C2.14286 6.95342 2.21811 6.77174 2.35207 6.63778C2.48602 6.50383 2.6677 6.42857 2.85714 6.42857ZM2.14286 10.7143V17.1429C2.14286 17.3323 2.21811 17.514 2.35207 17.6479C2.48602 17.7819 2.6677 17.8571 2.85714 17.8571H17.1429C17.3323 17.8571 17.514 17.7819 17.6479 17.6479C17.7819 17.514 17.8571 17.3323 17.8571 17.1429V10.7143H11.4286V12.8571H8.57143V10.7143H2.14286Z" fill="url(#paint0_linear_147_32357)"/>
<defs>
<linearGradient id="paint0_linear_147_32357" x1="10" y1="0" x2="10" y2="20" gradientUnits="userSpaceOnUse">
<stop stop-color="#6A1B9A"/>
<stop offset="1" stop-color="#D32F2F"/>
</linearGradient>
</defs>
</svg>
