<svg width="24" height="24" viewBox="0 0 24 24" fill="none" xmlns="http://www.w3.org/2000/svg">
<path d="M2.25 13.9151H21.75M20.65 13.9151C20.65 9.13814 16.7775 5.26514 12 5.26514C7.2225 5.26514 3.35 9.13814 3.35 13.9151" stroke="white" stroke-linecap="round" stroke-linejoin="round"/>
<path d="M8.39785 7.36577C7.50415 7.94879 6.76551 8.74026 6.24552 9.67205C5.72554 10.6038 5.43978 11.648 5.41285 12.7148M12.0004 5.26477V4.13477M12.4704 17.2748C15.0694 17.2433 15.4024 17.1348 20.2079 15.9148C20.5104 15.8383 20.7349 15.9933 20.8009 16.1693C20.8684 16.3493 20.8409 16.6683 20.4304 16.7748C19.6204 16.9848 14.5704 19.3148 13.4204 19.3148C12.2704 19.3148 8.92035 19.0648 7.66035 19.0648C6.40035 19.0648 4.93035 19.8648 4.93035 19.8648C3.92035 18.9248 3.28035 17.3648 3.11035 15.6748H15.5904C16.1054 15.6748 16.2704 16.3948 15.8304 16.5948C15.1779 16.8913 14.0704 17.2748 12.4704 17.2748Z" stroke="white" stroke-linecap="round" stroke-linejoin="round"/>
</svg>
