<svg width="24" height="24" viewBox="0 0 24 24" fill="none" xmlns="http://www.w3.org/2000/svg">
<path d="M12 12C14.7614 12 17 9.76142 17 7C17 4.23858 14.7614 2 12 2C9.23858 2 7 4.23858 7 7C7 9.76142 9.23858 12 12 12Z" fill="url(#paint0_linear_147_33968)"/>
<path d="M12.0002 14.5C6.99016 14.5 2.91016 17.86 2.91016 22C2.91016 22.28 3.13016 22.5 3.41016 22.5H20.5902C20.8702 22.5 21.0902 22.28 21.0902 22C21.0902 17.86 17.0102 14.5 12.0002 14.5Z" fill="url(#paint1_linear_147_33968)"/>
<defs>
<linearGradient id="paint0_linear_147_33968" x1="12" y1="2" x2="12" y2="12" gradientUnits="userSpaceOnUse">
<stop stop-color="#6A1B9A"/>
<stop offset="1" stop-color="#D32F2F"/>
</linearGradient>
<linearGradient id="paint1_linear_147_33968" x1="12.0002" y1="14.5" x2="12.0002" y2="22.5" gradientUnits="userSpaceOnUse">
<stop stop-color="#6A1B9A"/>
<stop offset="1" stop-color="#D32F2F"/>
</linearGradient>
</defs>
</svg>
