<svg width="20" height="20" viewBox="0 0 20 20" fill="none" xmlns="http://www.w3.org/2000/svg">
<path d="M7.591 12.4262L7.91078 12.4276C12.5552 12.468 15.183 13.4061 15.183 15.9682C15.183 18.4761 12.6645 19.4436 8.22314 19.5246L7.591 19.5302C2.74666 19.5302 0 18.6094 0 15.9882C0 13.3637 2.75759 12.4262 7.591 12.4262ZM7.591 13.9262C3.57365 13.9262 1.5 14.6312 1.5 15.9882C1.5 17.3367 3.56868 18.0302 7.591 18.0302C11.6086 18.0302 13.683 17.3252 13.683 15.9682C13.683 14.6205 11.6124 13.9262 7.591 13.9262ZM15.5867 11.7181C16.1673 11.7575 16.7444 11.8408 17.2991 11.9637C18.4872 12.2001 19.3705 12.6412 19.7752 13.4904C20.074 14.1191 20.074 14.8506 19.7752 15.4792C19.3728 16.3262 18.4987 16.7642 17.3039 17.0099C16.8982 17.0934 16.5016 16.8321 16.4182 16.4264C16.3347 16.0207 16.596 15.6242 17.0017 15.5407C17.7705 15.3826 18.2823 15.1262 18.4204 14.8354C18.5256 14.6141 18.5256 14.3556 18.4208 14.135C18.2817 13.8432 17.7673 13.5863 16.9907 13.4316C16.4933 13.3215 15.9905 13.249 15.4849 13.2146C15.0716 13.1865 14.7594 12.8287 14.7875 12.4154C14.8156 12.0022 15.1734 11.6899 15.5867 11.7181ZM7.591 0.469727C10.439 0.469727 12.726 2.75633 12.726 5.60373C12.726 8.45194 10.4392 10.7387 7.591 10.7387C4.74293 10.7387 2.457 8.45208 2.457 5.60373C2.457 2.75619 4.74311 0.469727 7.591 0.469727ZM14.0197 1.53933C16.2546 1.53933 18.0667 3.3518 18.0667 5.58633C18.0667 7.82154 16.2549 9.63333 14.0197 9.63333C13.6055 9.63333 13.2697 9.29754 13.2697 8.88333C13.2697 8.46911 13.6055 8.13333 14.0197 8.13333C15.4265 8.13333 16.5667 6.99311 16.5667 5.58633C16.5667 4.18016 15.4261 3.03933 14.0197 3.03933C13.6055 3.03933 13.2697 2.70354 13.2697 2.28933C13.2697 1.87511 13.6055 1.53933 14.0197 1.53933ZM7.591 1.96973C5.57159 1.96973 3.957 3.58457 3.957 5.60373C3.957 7.62376 5.57146 9.23873 7.591 9.23873C9.61079 9.23873 11.226 7.62351 11.226 5.60373C11.226 3.58481 9.61066 1.96973 7.591 1.96973Z" fill="white"/>
</svg>
